<?xml version="1.0" encoding="utf-8"?>
<!-- Generator: Adobe Illustrator 16.2.1, SVG Export Plug-In . SVG Version: 6.00 Build 0)  -->
<!DOCTYPE svg PUBLIC "-//W3C//DTD SVG 1.1//EN" "http://www.w3.org/Graphics/SVG/1.1/DTD/svg11.dtd">
<svg version="1.1" id="Layer_1" xmlns="http://www.w3.org/2000/svg" xmlns:xlink="http://www.w3.org/1999/xlink" x="0px" y="0px"
	 width="38.789px" height="38.789px" viewBox="0 0 38.789 38.789" enable-background="new 0 0 38.789 38.789" xml:space="preserve">
<g>
	<path fill="#FFFFFF" d="M18.481,29.369c0.034,0.023,0.067,0.045,0.104,0.066c0.039,0.021,0.078,0.039,0.117,0.059
		c0.021,0.01,0.042,0.023,0.063,0.031c0.012,0.006,0.024,0.008,0.036,0.012c0.042,0.018,0.085,0.029,0.129,0.043
		c0.035,0.01,0.069,0.021,0.105,0.029c0.042,0.01,0.085,0.016,0.127,0.021c0.037,0.006,0.073,0.01,0.109,0.014
		c0.044,0.004,0.088,0.004,0.132,0.002c0.035,0,0.07,0.002,0.105-0.002c0.046-0.002,0.091-0.01,0.136-0.016
		c0.034-0.006,0.067-0.01,0.102-0.018c0.044-0.01,0.088-0.023,0.132-0.037c0.034-0.01,0.067-0.02,0.101-0.033
		c0.015-0.006,0.03-0.008,0.046-0.014c0.026-0.012,0.051-0.027,0.077-0.039c0.033-0.018,0.065-0.033,0.099-0.051
		c0.039-0.021,0.077-0.047,0.113-0.072c0.029-0.02,0.06-0.039,0.087-0.061c0.037-0.029,0.072-0.061,0.107-0.094
		c0.017-0.014,0.034-0.025,0.05-0.043l7.704-7.703c0.644-0.645,0.644-1.686,0-2.328c-0.642-0.643-1.685-0.643-2.326,0l-4.896,4.896
		V8.791c0-0.568-0.287-1.07-0.726-1.365c-0.263-0.178-0.579-0.281-0.921-0.281c-0.454,0-0.865,0.184-1.163,0.482
		c-0.299,0.297-0.482,0.709-0.482,1.164l0,0v15.242l-4.895-4.896c-0.643-0.643-1.685-0.643-2.327,0
		c-0.322,0.322-0.483,0.742-0.483,1.164s0.16,0.842,0.481,1.164l7.706,7.705c0.017,0.016,0.035,0.029,0.052,0.045
		c0.033,0.029,0.067,0.061,0.104,0.088C18.417,29.326,18.449,29.348,18.481,29.369z"/>
	<g>
		<path fill="#FFFFFF" d="M38.789,19.395C38.789,8.684,30.107,0,19.395,0C8.684,0,0,8.684,0,19.395s8.684,19.395,19.395,19.395
			C30.107,38.789,38.789,30.105,38.789,19.395z M2.834,19.396c0-9.131,7.43-16.561,16.56-16.561c9.131,0,16.56,7.43,16.56,16.561
			c0,9.129-7.429,16.559-16.56,16.559C10.264,35.955,2.834,28.525,2.834,19.396z"/>
	</g>
</g>
</svg>
