<?xml version="1.0" encoding="utf-8"?>
<!-- Generator: Adobe Illustrator 17.0.0, SVG Export Plug-In . SVG Version: 6.00 Build 0)  -->
<!DOCTYPE svg PUBLIC "-//W3C//DTD SVG 1.1//EN" "http://www.w3.org/Graphics/SVG/1.1/DTD/svg11.dtd">
<svg version="1.1" id="Layer_1" xmlns="http://www.w3.org/2000/svg" xmlns:xlink="http://www.w3.org/1999/xlink" x="0px" y="0px"
	 width="13px" height="18.393px" viewBox="0 0 13 18.393" enable-background="new 0 0 13 18.393" xml:space="preserve">
<path fill="#DFF4FD" d="M6.5,9.481c-1.621,0-2.937-1.324-2.937-2.958c0-1.635,1.316-2.958,2.937-2.958s2.937,1.324,2.937,2.958
	C9.437,8.156,8.122,9.481,6.5,9.481 M6.5,0C2.91,0,0,2.931,0,6.547c0,3.416,2.944,7.821,4.91,9.967c0.734,0.8,1.59,1.879,1.59,1.879
	s0.919-1.085,1.707-1.909C10.171,14.428,13,10.301,13,6.547C13,2.931,10.09,0,6.5,0"/>
</svg>
