<?xml version="1.0" encoding="utf-8"?>
<!-- Generator: Adobe Illustrator 17.0.0, SVG Export Plug-In . SVG Version: 6.00 Build 0)  -->
<!DOCTYPE svg PUBLIC "-//W3C//DTD SVG 1.1//EN" "http://www.w3.org/Graphics/SVG/1.1/DTD/svg11.dtd">
<svg version="1.1" id="Layer_2" xmlns="http://www.w3.org/2000/svg" xmlns:xlink="http://www.w3.org/1999/xlink" x="0px" y="0px"
	 width="50px" height="22.499px" viewBox="229.601 241.617 50 22.499" enable-background="new 229.601 241.617 50 22.499"
	 xml:space="preserve">
<path fill="#FFFFFF" d="M268.297,241.617c-2.394,0-4.248,0.755-6.051,2.039c-0.016-0.048-0.058-0.084-0.121-0.095l-5.561-0.775
	c-0.111-0.017-0.263-0.098-0.338-0.182c0,0-1.004-0.986-2.134-0.986c-1.147,0-2.146,1.034-2.146,1.034
	c-0.073,0.085-0.223,0.17-0.334,0.189l-4.46,0.616c-0.048,0.009-0.083,0.034-0.105,0.066c-1.834-1.263-3.879-1.904-6.246-1.904
	c-6.187,0-11.202,5.11-11.202,11.297c0,6.187,5.015,11.202,11.202,11.202c6.187,0,11.341-5.053,11.341-11.239
	c0-0.591-0.047-1.171-0.138-1.738c0.742-0.544,1.919-1.34,2.496-1.375c0.772-0.047,2.104,0.953,2.793,1.519
	c-0.07,0.511-0.107,1.032-0.107,1.563c0,6.187,4.921,11.202,11.107,11.202c6.187,0,11.304-5.015,11.304-11.202
	C279.601,246.658,274.484,241.617,268.297,241.617z M240.803,262.078c-5.053,0-9.164-4.111-9.164-9.164
	c0-5.053,4.111-9.164,9.164-9.164c5.053,0,9.24,4.111,9.24,9.164C250.043,257.967,245.856,262.078,240.803,262.078z
	 M268.297,262.078c-5.053,0-9.12-4.18-9.12-9.233s4.067-9.164,9.12-9.164c5.053,0,9.266,4.111,9.266,9.164
	C277.563,257.898,273.35,262.078,268.297,262.078z"/>
</svg>
