<?xml version="1.0" encoding="utf-8"?>
<!-- Generator: Adobe Illustrator 16.2.1, SVG Export Plug-In . SVG Version: 6.00 Build 0)  -->
<!DOCTYPE svg PUBLIC "-//W3C//DTD SVG 1.1//EN" "http://www.w3.org/Graphics/SVG/1.1/DTD/svg11.dtd">
<svg version="1.1" id="Layer_1" xmlns="http://www.w3.org/2000/svg" xmlns:xlink="http://www.w3.org/1999/xlink" x="0px" y="0px"
	 width="191.237px" height="492.407px" viewBox="0 0 191.237 492.407" enable-background="new 0 0 191.237 492.407"
	 xml:space="preserve">
<g>
	<defs>
		<rect id="SVGID_1_" width="191.237" height="492.407"/>
	</defs>
	<clipPath id="SVGID_2_">
		<use xlink:href="#SVGID_1_"  overflow="visible"/>
	</clipPath>
	<path clip-path="url(#SVGID_2_)" fill="#F6F6F6" d="M95.872,81.671c22.55,0,40.834-18.284,40.834-40.836
		C136.706,18.284,118.422,0,95.872,0C73.319,0,55.038,18.284,55.038,40.835C55.038,63.387,73.319,81.671,95.872,81.671"/>
	<path clip-path="url(#SVGID_2_)" fill="#F6F6F6" d="M52.173,90.683c-28.917,0-52.173,23.584-52.173,53v125.375
		c0,24.375,35.673,24.375,35.673,0V154.416h8.445v313.907c0,32.59,47.503,31.631,47.503,0V286.104h8.182v182.219
		c0,31.631,47.765,32.59,47.765,0V154.416h8.247v114.642c0,24.563,35.486,24.562,35.423,0V144.433
		c0-27.125-21.064-53.694-52.814-53.694L52.173,90.683z"/>
</g>
</svg>
