<?xml version="1.0" encoding="utf-8"?>
<!-- Generator: Adobe Illustrator 17.0.0, SVG Export Plug-In . SVG Version: 6.00 Build 0)  -->
<!DOCTYPE svg PUBLIC "-//W3C//DTD SVG 1.1//EN" "http://www.w3.org/Graphics/SVG/1.1/DTD/svg11.dtd">
<svg version="1.1" id="Layer_1" xmlns="http://www.w3.org/2000/svg" xmlns:xlink="http://www.w3.org/1999/xlink" x="0px" y="0px"
	 width="260px" height="270px" viewBox="0 0 260 270" enable-background="new 0 0 260 270" xml:space="preserve">
<path fill="#A2B3BA" d="M27.132,14.762c0,7.443-6.033,13.476-13.476,13.476S0.181,22.204,0.181,14.762c0-4.285,2-8.103,5.117-10.571
	C6.555,3.195,2.41,0.565,3.973,0.067c1.293-0.412,8.254,1.219,9.684,1.219C21.099,1.286,27.132,7.319,27.132,14.762z"/>
<g>
	<path fill="#FFFFFF" d="M11.338,24.609v-8.127H8.849v-3.656h2.545V9.8c0,0,0.116-3.811,3.381-3.841h3.633v3.588h-2.254
		c0,0-0.952,0-0.952,1.072c0,1.07,0,2.27,0,2.27h3.26l-0.392,3.654H15.26v8.066H11.338z"/>
</g>
<g>
	<path fill="#A2B3BA" d="M27.136,45.155c0,7.443-6.033,13.476-13.476,13.476S0.185,52.597,0.185,45.155
		c0-4.285,2-8.103,5.117-10.571c1.257-0.996-2.888-3.625-1.325-4.124c1.293-0.412,8.254,1.219,9.684,1.219
		C21.103,31.679,27.136,37.712,27.136,45.155z"/>
	<path fill="#FFFFFF" d="M0.004,45.41c0,3.31,1.199,6.34,3.187,8.679c0.375-0.63,0.957-1.25,1.818-1.76
		c1.944-1.191,4.561-1.349,5.977-1.438c-0.438-0.562-0.944-1.157-0.944-2.134c0-0.528,0.157-0.843,0.315-1.214
		c-0.348,0.034-0.685,0.068-1,0.068c-3.314,0-5.19-2.472-5.19-4.91c0-1.438,0.663-3.036,1.999-4.192
		c1.786-1.468,3.91-1.719,5.595-1.719h6.437l-2,1.125h-1.932c0.718,0.594,2.213,1.845,2.213,4.224c0,2.315-1.315,3.404-2.618,4.437
		c-0.416,0.405-0.876,0.843-0.876,1.528c0,0.685,0.46,1.068,0.809,1.349l1.123,0.876c1.382,1.146,2.629,2.213,2.629,4.37
		c0,1.422-0.663,2.85-1.957,3.945c-0.696,0.114-1.409,0.173-2.137,0.176c1.313-0.576,1.994-1.63,1.994-2.897
		c0-1.595-1.022-2.438-3.404-4.134c-0.247-0.023-0.405-0.023-0.719-0.023c-0.281,0-1.966,0.057-3.28,0.494
		c-0.685,0.247-2.685,1-2.685,3.224c0,0.242,0.026,0.476,0.076,0.701C2.138,53.745,0.004,49.826,0.004,45.41z"/>
	<path fill="#A2B3BA" d="M12.826,45.633c0.694-0.694,0.748-1.659,0.748-2.202c0-2.18-1.29-5.556-3.796-5.556
		c-0.781,0-1.627,0.393-2.115,0.997c-0.51,0.633-0.662,1.447-0.662,2.228c0,2.028,1.171,5.379,3.774,5.379
		C11.525,46.479,12.338,46.11,12.826,45.633z"/>
	<g>
		<path fill="#FFFFFF" d="M26.397,40.893L26.397,40.893c0.206,0.497,0.384,1.009,0.533,1.534
			C26.782,41.902,26.604,41.39,26.397,40.893L26.397,40.893L26.397,40.893L26.397,40.893z M26.397,40.893L26.397,40.893h-2.789
			v-3.654h-1.566v3.654h-3.654v1.534h3.654v3.685h1.566v-3.685h3.322"/>
	</g>
</g>
<path fill="#A2B3BA" d="M27.136,74.996c0,7.442-6.033,13.476-13.476,13.476S0.185,82.438,0.185,74.996c0-4.285,2-8.103,5.117-10.571
	c1.257-0.996-2.888-3.625-1.325-4.124c1.293-0.412,8.254,1.219,9.684,1.219C21.103,61.52,27.136,67.553,27.136,74.996z"/>
<g>
	<path fill="#FFFFFF" d="M23.316,70.146c-0.638,0.283-1.323,0.473-2.042,0.56c0.735-0.44,1.298-1.135,1.564-1.965
		c-0.687,0.408-1.448,0.704-2.257,0.862c-0.647-0.691-1.57-1.122-2.591-1.122c-1.961,0-3.553,1.591-3.553,3.553
		c0,0.279,0.032,0.549,0.092,0.809c-2.952-0.148-5.57-1.562-7.321-3.711c-0.306,0.524-0.482,1.135-0.482,1.786
		c0,1.232,0.628,2.318,1.581,2.957c-0.582-0.019-1.131-0.18-1.609-0.444c0,0.015,0,0.03,0,0.044c0,1.72,1.225,3.155,2.849,3.483
		c-0.298,0.08-0.612,0.125-0.935,0.125c-0.229,0-0.451-0.023-0.669-0.066c0.452,1.412,1.765,2.439,3.318,2.468
		c-1.215,0.951-2.746,1.52-4.411,1.52c-0.287,0-0.57-0.017-0.847-0.049c1.571,1.006,3.439,1.596,5.445,1.596
		c6.534,0,10.105-5.412,10.105-10.106c0-0.154-0.004-0.309-0.008-0.461C22.238,71.484,22.838,70.858,23.316,70.146z"/>
</g>
<path fill="#A2B3BA" d="M27.136,104.842c0,7.443-6.033,13.476-13.476,13.476s-13.476-6.033-13.476-13.476
	c0-4.285,2-8.103,5.117-10.571c1.257-0.996-2.888-3.625-1.325-4.124c1.293-0.412,8.254,1.219,9.684,1.219
	C21.103,91.366,27.136,97.399,27.136,104.842z"/>
<path fill="#FFFFFF" d="M14.464,96.383c-4.566,0-7.224,3.63-7.224,6.36c0,1.652,0.981,3.123,2.323,3.672
	c0.22,0.089,0.418,0.003,0.482-0.242c0.045-0.167,0.148-0.593,0.195-0.772c0.064-0.24,0.042-0.323-0.137-0.535
	c-0.387-0.457-0.635-1.048-0.635-1.883c0-2.429,1.816-4.605,4.73-4.605c2.583,0,4.001,1.577,4.001,3.683
	c0,2.772-1.226,5.112-3.048,5.112c-1.006,0-1.758-0.833-1.516-1.853c0.287-1.217,0.847-2.532,0.847-3.41
	c0-0.786-0.421-1.443-1.295-1.443c-1.028,0-1.853,1.064-1.853,2.488c0,0.908,0.306,1.521,0.306,1.521s-1.41,4.457-1.594,5.238
	c-0.368,1.555,0.657,4.173,0.685,4.366c0.014,0.114,0.162,0.139,0.228,0.056c0.095-0.125,1.674-2.349,2.089-3.859
	c0.12-0.429-0.036-2.644-0.036-2.644c0.334,0.638,1.309,1.555,2.349,1.555c3.09,0,5.541-3.173,5.541-6.942
	C20.905,99.395,18.133,96.383,14.464,96.383"/>
<path fill="#A2B3BA" d="M27.05,134.959c0,7.443-6.033,13.476-13.476,13.476s-13.476-6.033-13.476-13.476
	c0-4.285,2-8.103,5.117-10.571c1.257-0.996-2.888-3.625-1.325-4.124c1.293-0.412,8.254,1.219,9.684,1.219
	C21.016,121.483,27.05,127.516,27.05,134.959z"/>
<g>
	<path fill="#FFFFFF" d="M22.038,140.787v0.339h-2.819c-0.029-1.281-0.629-11.177-11.939-11.901v-2.798
		C8.057,126.44,20.63,126.892,22.038,140.787z M16.767,141.126h-2.762c-0.052-6.183-5.884-6.806-6.725-6.864v-2.639
		C16.261,132.133,16.742,140.317,16.767,141.126z M7.28,139.094c0.108-0.935,0.874-1.67,1.838-1.67c1.038,0,1.879,0.841,1.879,1.879
		c0,0.939-0.701,1.684-1.602,1.823H8.84c-0.829-0.128-1.463-0.775-1.56-1.614V139.094z"/>
</g>
<path fill="#4C66A5" d="M58.444,14.897c0,7.443-6.033,13.476-13.476,13.476S31.493,22.34,31.493,14.897
	c0-4.285,2-8.103,5.117-10.571c1.257-0.996-2.888-3.625-1.325-4.124c1.293-0.412,8.254,1.219,9.684,1.219
	C52.411,1.421,58.444,7.455,58.444,14.897z"/>
<g>
	<path fill="#FFFFFF" d="M42.65,24.744v-8.127h-2.488v-3.656h2.545V9.935c0,0,0.116-3.811,3.381-3.841h3.633v3.588h-2.254
		c0,0-0.952,0-0.952,1.072c0,1.07,0,2.27,0,2.27h3.26l-0.392,3.654h-2.812v8.066H42.65z"/>
</g>
<g>
	<path fill="#D64A2E" d="M58.448,45.29c0,7.443-6.033,13.476-13.476,13.476S31.497,52.733,31.497,45.29
		c0-4.285,2-8.103,5.117-10.571c1.257-0.996-2.888-3.625-1.325-4.124c1.293-0.412,8.254,1.219,9.684,1.219
		C52.415,31.814,58.448,37.848,58.448,45.29z"/>
	<path fill="#FFFFFF" d="M31.316,45.546c0,3.31,1.199,6.34,3.187,8.679c0.375-0.63,0.957-1.25,1.818-1.76
		c1.944-1.191,4.561-1.349,5.977-1.438c-0.438-0.562-0.944-1.157-0.944-2.134c0-0.528,0.157-0.843,0.315-1.214
		c-0.348,0.034-0.685,0.068-1,0.068c-3.314,0-5.19-2.472-5.19-4.91c0-1.438,0.663-3.036,1.999-4.192
		c1.786-1.468,3.91-1.719,5.595-1.719h6.437l-2,1.125h-1.932c0.718,0.594,2.213,1.845,2.213,4.224c0,2.315-1.315,3.404-2.618,4.437
		c-0.416,0.405-0.876,0.843-0.876,1.528c0,0.685,0.46,1.068,0.809,1.349l1.123,0.876c1.382,1.146,2.629,2.213,2.629,4.37
		c0,1.422-0.663,2.85-1.957,3.945c-0.696,0.114-1.409,0.173-2.137,0.176c1.313-0.576,1.994-1.63,1.994-2.897
		c0-1.595-1.022-2.438-3.404-4.134c-0.247-0.023-0.405-0.023-0.719-0.023c-0.281,0-1.966,0.057-3.28,0.494
		c-0.685,0.247-2.685,1-2.685,3.224c0,0.242,0.026,0.476,0.076,0.701C33.45,53.88,31.316,49.962,31.316,45.546z"/>
	<path fill="#D64A2E" d="M44.138,45.769c0.694-0.694,0.748-1.659,0.748-2.202c0-2.18-1.29-5.556-3.796-5.556
		c-0.781,0-1.627,0.393-2.115,0.997c-0.51,0.633-0.662,1.447-0.662,2.228c0,2.028,1.171,5.379,3.774,5.379
		C42.837,46.615,43.65,46.246,44.138,45.769z"/>
	<g>
		<path fill="#FFFFFF" d="M57.709,41.028L57.709,41.028c0.206,0.497,0.384,1.009,0.533,1.534
			C58.094,42.038,57.916,41.526,57.709,41.028L57.709,41.028L57.709,41.028L57.709,41.028z M57.709,41.028L57.709,41.028H54.92
			v-3.654h-1.566v3.654h-3.654v1.534h3.654v3.685h1.566v-3.685h3.322"/>
	</g>
</g>
<path fill="#3B92C8" d="M58.448,75.132c0,7.443-6.033,13.476-13.476,13.476s-13.476-6.033-13.476-13.476
	c0-4.285,2-8.103,5.117-10.571c1.257-0.996-2.888-3.625-1.325-4.124c1.293-0.412,8.254,1.219,9.684,1.219
	C52.415,61.656,58.448,67.689,58.448,75.132z"/>
<g>
	<path fill="#FFFFFF" d="M54.628,70.281c-0.638,0.283-1.323,0.473-2.042,0.56c0.735-0.44,1.298-1.135,1.564-1.965
		c-0.687,0.408-1.448,0.704-2.257,0.862c-0.647-0.691-1.57-1.122-2.591-1.122c-1.961,0-3.553,1.591-3.553,3.553
		c0,0.279,0.032,0.549,0.092,0.809c-2.952-0.148-5.57-1.562-7.321-3.711c-0.306,0.524-0.482,1.135-0.482,1.786
		c0,1.232,0.628,2.318,1.581,2.957c-0.582-0.019-1.131-0.18-1.609-0.444c0,0.015,0,0.03,0,0.044c0,1.72,1.225,3.155,2.849,3.483
		c-0.298,0.08-0.612,0.125-0.935,0.125c-0.229,0-0.451-0.023-0.669-0.066c0.452,1.412,1.765,2.439,3.318,2.468
		c-1.215,0.951-2.746,1.52-4.411,1.52c-0.287,0-0.57-0.017-0.847-0.049c1.571,1.006,3.439,1.596,5.445,1.596
		c6.534,0,10.105-5.412,10.105-10.106c0-0.154-0.004-0.309-0.008-0.461C53.55,71.619,54.15,70.994,54.628,70.281z"/>
</g>
<path fill="#CA4638" d="M58.448,104.977c0,7.442-6.033,13.476-13.476,13.476s-13.476-6.033-13.476-13.476
	c0-4.285,2-8.103,5.117-10.571c1.257-0.996-2.888-3.625-1.325-4.124c1.293-0.412,8.254,1.219,9.684,1.219
	C52.415,91.501,58.448,97.535,58.448,104.977z"/>
<path fill="#FFFFFF" d="M45.776,96.519c-4.566,0-7.224,3.63-7.224,6.36c0,1.652,0.981,3.123,2.323,3.672
	c0.22,0.089,0.418,0.003,0.482-0.242c0.045-0.167,0.148-0.593,0.195-0.772c0.064-0.24,0.042-0.323-0.137-0.535
	c-0.387-0.457-0.635-1.048-0.635-1.883c0-2.429,1.816-4.605,4.73-4.605c2.583,0,4.001,1.577,4.001,3.683
	c0,2.772-1.226,5.112-3.048,5.112c-1.006,0-1.758-0.833-1.516-1.853c0.287-1.217,0.847-2.532,0.847-3.41
	c0-0.786-0.421-1.443-1.295-1.443c-1.028,0-1.853,1.064-1.853,2.488c0,0.908,0.306,1.521,0.306,1.521s-1.41,4.457-1.594,5.238
	c-0.368,1.555,0.657,4.173,0.685,4.366c0.014,0.114,0.162,0.139,0.228,0.056c0.095-0.125,1.674-2.349,2.089-3.859
	c0.12-0.429-0.036-2.644-0.036-2.644c0.334,0.638,1.309,1.555,2.349,1.555c3.09,0,5.541-3.173,5.541-6.942
	C52.217,99.531,49.445,96.519,45.776,96.519"/>
<path fill="#E09126" d="M58.362,135.094c0,7.443-6.033,13.476-13.476,13.476s-13.476-6.033-13.476-13.476
	c0-4.285,2-8.103,5.117-10.571c1.257-0.996-2.888-3.625-1.325-4.124c1.293-0.412,8.254,1.219,9.684,1.219
	C52.328,121.619,58.362,127.652,58.362,135.094z"/>
<g>
	<path fill="#FFFFFF" d="M53.35,140.923v0.339h-2.819c-0.029-1.281-0.629-11.177-11.939-11.901v-2.798
		C39.369,126.575,51.942,127.028,53.35,140.923z M48.079,141.262h-2.762c-0.052-6.183-5.884-6.806-6.725-6.864v-2.639
		C47.573,132.268,48.054,140.453,48.079,141.262z M38.592,139.229c0.108-0.935,0.874-1.67,1.838-1.67
		c1.038,0,1.879,0.841,1.879,1.879c0,0.939-0.701,1.684-1.602,1.823h-0.555c-0.829-0.128-1.463-0.775-1.56-1.614V139.229z"/>
</g>
</svg>
