<?xml version="1.0" encoding="utf-8"?>
<!-- Generator: Adobe Illustrator 17.0.0, SVG Export Plug-In . SVG Version: 6.00 Build 0)  -->
<!DOCTYPE svg PUBLIC "-//W3C//DTD SVG 1.1//EN" "http://www.w3.org/Graphics/SVG/1.1/DTD/svg11.dtd">
<svg version="1.1" id="Layer_1" xmlns="http://www.w3.org/2000/svg" xmlns:xlink="http://www.w3.org/1999/xlink" x="0px" y="0px"
	 width="36px" height="36px" viewBox="0 0 36 36" enable-background="new 0 0 36 36" xml:space="preserve">
<g>
	<g>
		<g>
			<polygon fill="#FFFFFF" points="17.357,0.735 18.308,4.643 19.259,8.553 17.357,8.553 15.455,8.553 16.406,4.643 			"/>
			<polygon fill="#FFFFFF" points="9.819,7.274 10.308,9.314 10.795,11.352 9.819,11.352 8.845,11.352 9.333,9.314 			"/>
			<rect x="8.698" y="11.352" fill="#FFFFFF" width="2.244" height="0.417"/>
			<rect x="9.19" y="11.77" fill="#FFFFFF" width="1.26" height="1.515"/>
			<rect x="8.685" y="13.283" fill="#FFFFFF" width="2.271" height="0.724"/>
			<polygon fill="#FFFFFF" points="10.687,14.887 8.951,14.887 8.685,14.007 10.955,14.007 			"/>
			<rect x="15.094" y="8.553" fill="#FFFFFF" width="4.526" height="0.762"/>
			<polygon fill="#FFFFFF" points="18.596,11.036 16.119,11.036 15.455,9.315 19.259,9.315 			"/>
			<polygon fill="#FFFFFF" points="16.119,11.036 18.597,11.036 18.597,16.551 16.119,14.007 			"/>
			<polygon fill="#FFFFFF" points="8.951,14.887 10.687,14.887 10.687,16.299 8.951,18.315 			"/>
			<polygon fill="#FFFFFF" points="24.928,7.536 25.857,8.912 26.788,10.288 24.928,10.288 23.067,10.288 23.998,8.912 			"/>
			<rect x="23.067" y="10.288" fill="#FFFFFF" width="3.72" height="0.755"/>
			<rect x="23.683" y="12.202" fill="#FFFFFF" width="2.493" height="2.571"/>
			<rect x="21.819" y="14.772" fill="#FFFFFF" width="6.22" height="0.98"/>
			<polygon fill="#FFFFFF" points="27.388,17.414 22.467,17.414 21.819,15.753 28.037,15.753 			"/>
			<rect x="22.467" y="17.414" fill="#FFFFFF" width="4.922" height="7.413"/>
			<polygon fill="#FFFFFF" points="33.883,24.826 29.829,24.826 29.294,22.334 34.416,22.334 			"/>
			<polygon fill="#FFFFFF" points="6.003,24.826 1.95,24.826 1.415,22.334 6.538,22.334 			"/>
			<polygon fill="#FFFFFF" points="26.136,12.202 23.712,12.202 23.06,11.042 26.788,11.042 			"/>
			<rect x="7.511" y="23.47" fill="#FFFFFF" width="13.597" height="1.356"/>
			<g>
				<polygon fill="#FFFFFF" points="5.838,19.525 5.838,20.193 5.117,20.193 5.117,19.525 4.337,19.525 4.337,20.193 3.616,20.193 
					3.616,19.525 2.835,19.525 2.835,20.193 2.114,20.193 2.114,19.525 1.415,19.525 1.415,22.334 6.538,22.334 6.538,19.525 				
					"/>
			</g>
			<g>
				<polygon fill="#FFFFFF" points="33.717,19.525 33.717,20.193 32.996,20.193 32.996,19.525 32.217,19.525 32.217,20.193 
					31.495,20.193 31.495,19.525 30.716,19.525 30.716,20.193 29.994,20.193 29.994,19.525 29.294,19.525 29.294,22.334 
					34.416,22.334 34.416,19.525 				"/>
			</g>
			<g>
				<path fill="#FFFFFF" d="M24.993,17.373c-0.415,0-0.751,0.337-0.751,0.749v2.426h1.502v-2.426
					C25.744,17.709,25.408,17.373,24.993,17.373z"/>
			</g>
			<polygon fill="#FFFFFF" points="1.944,24.682 1.944,28.278 0.647,34.625 12.696,34.625 12.702,29.382 14.729,27.472 
				16.763,29.359 16.763,34.625 35.263,34.667 33.924,28.134 33.906,24.682 			"/>
		</g>
		<g>
		</g>
	</g>
	<g>
		<g>
			<polygon fill="#FFFFFF" points="8.435,23.652 9.216,23.652 9.216,19.411 14.34,13.136 19.488,19.411 19.484,23.652 
				20.245,23.652 20.245,18.311 14.34,11.668 8.435,18.311 			"/>
			<path fill="#FFFFFF" d="M11.194,23.564"/>
		</g>
		<polygon fill="#FFFFFF" points="9.052,23.799 11.103,23.799 11.1,21.423 11.829,20.574 12.644,21.423 12.647,23.799 
			13.566,23.799 13.562,21.423 14.34,20.517 15.106,21.423 15.11,23.799 16.028,23.799 16.025,21.423 16.773,20.517 17.569,21.423 
			17.572,23.799 19.625,23.799 19.628,19.439 14.337,12.989 9.07,19.439 		"/>
	</g>
</g>
</svg>
