<?xml version="1.0" encoding="utf-8"?>
<!-- Generator: Adobe Illustrator 17.0.0, SVG Export Plug-In . SVG Version: 6.00 Build 0)  -->
<!DOCTYPE svg PUBLIC "-//W3C//DTD SVG 1.1//EN" "http://www.w3.org/Graphics/SVG/1.1/DTD/svg11.dtd">
<svg version="1.1" id="Layer_1" xmlns="http://www.w3.org/2000/svg" xmlns:xlink="http://www.w3.org/1999/xlink" x="0px" y="0px"
	 width="36px" height="36px" viewBox="0 0 36 36" enable-background="new 0 0 36 36" xml:space="preserve">
<g>
	<polygon fill="#FFFFFF" points="17.524,0 18.349,3.39 19.174,6.781 17.524,6.781 15.874,6.781 16.699,3.39 	"/>
	<polygon fill="#FFFFFF" points="10.986,5.672 11.41,7.441 11.832,9.209 10.986,9.209 10.141,9.209 10.564,7.441 	"/>
	<rect x="10.013" y="9.209" fill="#FFFFFF" width="1.946" height="0.362"/>
	<rect x="10.44" y="9.571" fill="#FFFFFF" width="1.093" height="1.314"/>
	<rect x="10.002" y="10.884" fill="#FFFFFF" width="1.97" height="0.628"/>
	<polygon fill="#FFFFFF" points="11.739,12.275 10.233,12.275 10.002,11.512 11.971,11.512 	"/>
	<rect x="15.561" y="6.781" fill="#FFFFFF" width="3.926" height="0.661"/>
	<polygon fill="#FFFFFF" points="18.599,8.935 16.45,8.935 15.874,7.442 19.174,7.442 	"/>
	<rect x="16.45" y="8.935" fill="#FFFFFF" width="2.15" height="4.783"/>
	<rect x="10.233" y="12.275" fill="#FFFFFF" width="1.506" height="2.973"/>
	<polygon fill="#FFFFFF" points="24.091,5.899 24.897,7.092 25.704,8.286 24.091,8.286 22.477,8.286 23.284,7.092 	"/>
	<rect x="22.477" y="8.286" fill="#FFFFFF" width="3.227" height="0.655"/>
	<rect x="23.011" y="9.946" fill="#FFFFFF" width="2.162" height="2.23"/>
	<rect x="21.394" y="12.175" fill="#FFFFFF" width="5.395" height="0.85"/>
	<polygon fill="#FFFFFF" points="26.225,14.467 21.956,14.467 21.394,13.026 26.788,13.026 	"/>
	<rect x="21.956" y="14.467" fill="#FFFFFF" width="4.269" height="6.43"/>
	<polygon fill="#FFFFFF" points="31.858,20.896 28.342,20.896 27.878,18.734 32.321,18.734 	"/>
	<polygon fill="#FFFFFF" points="7.676,20.896 4.16,20.896 3.696,18.734 8.14,18.734 	"/>
	<polygon fill="#FFFFFF" points="25.139,9.946 23.036,9.946 22.471,8.94 25.704,8.94 	"/>
	<g>
		<polygon fill="#FFFFFF" points="17.453,12.338 14.892,9.511 12.331,12.338 9.77,15.166 9.77,19.72 20.014,19.72 20.014,15.166 		
			"/>
		<polygon fill="#19202E" points="19.357,19.72 10.427,19.72 10.427,16.115 12.818,13.476 14.892,11.185 16.966,13.476 
			19.357,16.115 19.357,19.063 		"/>
	</g>
	<rect x="8.984" y="19.72" fill="#FFFFFF" width="11.794" height="1.176"/>
	<g>
		<polygon fill="#FFFFFF" points="7.533,16.298 7.533,16.877 6.907,16.877 6.907,16.298 6.231,16.298 6.231,16.877 5.605,16.877 
			5.605,16.298 4.928,16.298 4.928,16.877 4.303,16.877 4.303,16.298 3.696,16.298 3.696,18.734 8.14,18.734 8.14,16.298 		"/>
	</g>
	<g>
		<polygon fill="#FFFFFF" points="31.714,16.298 31.714,16.877 31.089,16.877 31.089,16.298 30.413,16.298 30.413,16.877 
			29.787,16.877 29.787,16.298 29.111,16.298 29.111,16.877 28.485,16.877 28.485,16.298 27.878,16.298 27.878,18.734 
			32.321,18.734 32.321,16.298 		"/>
	</g>
	<g>
		<path fill="#FFFFFF" d="M12.795,16.965c-0.36,0-0.652,0.292-0.652,0.651v2.104h1.303v-2.104
			C13.446,17.257,13.155,16.965,12.795,16.965z"/>
	</g>
	<g>
		<path fill="#FFFFFF" d="M14.872,16.965c-0.36,0-0.651,0.292-0.651,0.651v2.104h1.303v-2.104
			C15.524,17.257,15.232,16.965,14.872,16.965z"/>
	</g>
	<g>
		<path fill="#FFFFFF" d="M14.872,13.758c-0.243,0-0.441,0.197-0.441,0.441v1.424h0.882v-1.424
			C15.313,13.955,15.116,13.758,14.872,13.758z"/>
	</g>
	<g>
		<path fill="#FFFFFF" d="M16.95,16.965c-0.36,0-0.651,0.292-0.651,0.651v2.104h1.303v-2.104
			C17.602,17.257,17.31,16.965,16.95,16.965z"/>
	</g>
	<g>
		<path fill="#FFFFFF" d="M24.147,14.431c-0.36,0-0.651,0.292-0.651,0.65v2.104h1.303v-2.104
			C24.799,14.723,24.507,14.431,24.147,14.431z"/>
	</g>
	<g>
		<polygon fill="#FFFFFF" points="31.858,23.986 31.858,20.896 4.16,20.896 4.16,23.986 3,29.52 33.017,29.52 		"/>
	</g>
	<g>
		<path fill="#19202E" d="M14.907,23.316c-0.974,0-1.764,0.79-1.764,1.764v4.439h3.528v-4.439
			C16.672,24.107,15.882,23.316,14.907,23.316z"/>
	</g>
</g>
</svg>
