<?xml version="1.0" encoding="utf-8"?>
<!-- Generator: Adobe Illustrator 17.0.0, SVG Export Plug-In . SVG Version: 6.00 Build 0)  -->
<!DOCTYPE svg PUBLIC "-//W3C//DTD SVG 1.1//EN" "http://www.w3.org/Graphics/SVG/1.1/DTD/svg11.dtd">
<svg version="1.1" id="Layer_1" xmlns="http://www.w3.org/2000/svg" xmlns:xlink="http://www.w3.org/1999/xlink" x="0px" y="0px"
	 width="36px" height="36px" viewBox="0 0 36 36" enable-background="new 0 0 36 36" xml:space="preserve">
<g>
	<polygon fill="#FFFFFF" points="17.524,2 18.349,5.39 19.174,8.781 17.524,8.781 15.874,8.781 16.699,5.39 	"/>
	<polygon fill="#FFFFFF" points="10.986,7.672 11.41,9.441 11.832,11.209 10.986,11.209 10.141,11.209 10.564,9.441 	"/>
	<rect x="10.013" y="11.209" fill="#FFFFFF" width="1.946" height="0.362"/>
	<rect x="10.44" y="11.571" fill="#FFFFFF" width="1.093" height="1.314"/>
	<rect x="10.002" y="12.884" fill="#FFFFFF" width="1.97" height="0.628"/>
	<polygon fill="#FFFFFF" points="11.739,14.275 10.233,14.275 10.002,13.512 11.971,13.512 	"/>
	<rect x="15.561" y="8.781" fill="#FFFFFF" width="3.926" height="0.661"/>
	<polygon fill="#FFFFFF" points="18.599,10.935 16.45,10.935 15.874,9.442 19.174,9.442 	"/>
	<rect x="16.45" y="10.935" fill="#FFFFFF" width="2.15" height="4.783"/>
	<rect x="10.233" y="14.275" fill="#FFFFFF" width="1.506" height="2.973"/>
	<polygon fill="#FFFFFF" points="24.091,7.899 24.897,9.092 25.704,10.286 24.091,10.286 22.477,10.286 23.284,9.092 	"/>
	<rect x="22.477" y="10.286" fill="#FFFFFF" width="3.227" height="0.655"/>
	<rect x="23.011" y="11.946" fill="#FFFFFF" width="2.162" height="2.23"/>
	<rect x="21.394" y="14.175" fill="#FFFFFF" width="5.395" height="0.85"/>
	<polygon fill="#FFFFFF" points="26.225,16.467 21.956,16.467 21.394,15.026 26.788,15.026 	"/>
	<rect x="21.956" y="16.467" fill="#FFFFFF" width="4.269" height="6.43"/>
	<polygon fill="#FFFFFF" points="31.858,22.896 28.342,22.896 27.878,20.734 32.321,20.734 	"/>
	<polygon fill="#FFFFFF" points="7.676,22.896 4.16,22.896 3.696,20.734 8.14,20.734 	"/>
	<polygon fill="#FFFFFF" points="25.139,11.946 23.036,11.946 22.471,10.94 25.704,10.94 	"/>
	<g>
		<polygon fill="#FFFFFF" points="17.453,14.338 14.892,11.511 12.331,14.338 9.77,17.166 9.77,21.72 20.014,21.72 20.014,17.166 		
			"/>
		<polygon fill="#19202E" points="19.357,21.72 10.427,21.72 10.427,18.115 12.818,15.476 14.892,13.185 16.966,15.476 
			19.357,18.115 19.357,21.063 		"/>
	</g>
	<rect x="8.984" y="21.72" fill="#FFFFFF" width="11.794" height="1.176"/>
	<g>
		<polygon fill="#FFFFFF" points="7.533,18.298 7.533,18.877 6.907,18.877 6.907,18.298 6.231,18.298 6.231,18.877 5.605,18.877 
			5.605,18.298 4.928,18.298 4.928,18.877 4.303,18.877 4.303,18.298 3.696,18.298 3.696,20.734 8.14,20.734 8.14,18.298 		"/>
	</g>
	<g>
		<polygon fill="#FFFFFF" points="31.714,18.298 31.714,18.877 31.089,18.877 31.089,18.298 30.413,18.298 30.413,18.877 
			29.787,18.877 29.787,18.298 29.111,18.298 29.111,18.877 28.485,18.877 28.485,18.298 27.878,18.298 27.878,20.734 
			32.321,20.734 32.321,18.298 		"/>
	</g>
	<g>
		<path fill="#FFFFFF" d="M12.795,18.965c-0.36,0-0.652,0.292-0.652,0.651v2.104h1.303v-2.104
			C13.446,19.257,13.155,18.965,12.795,18.965z"/>
	</g>
	<g>
		<path fill="#FFFFFF" d="M14.872,18.965c-0.36,0-0.651,0.292-0.651,0.651v2.104h1.303v-2.104
			C15.524,19.257,15.232,18.965,14.872,18.965z"/>
	</g>
	<g>
		<path fill="#FFFFFF" d="M14.872,15.758c-0.243,0-0.441,0.197-0.441,0.441v1.424h0.882v-1.424
			C15.313,15.955,15.116,15.758,14.872,15.758z"/>
	</g>
	<g>
		<path fill="#FFFFFF" d="M16.95,18.965c-0.36,0-0.651,0.292-0.651,0.651v2.104h1.303v-2.104
			C17.602,19.257,17.31,18.965,16.95,18.965z"/>
	</g>
	<g>
		<path fill="#FFFFFF" d="M24.147,16.431c-0.36,0-0.651,0.292-0.651,0.65v2.104h1.303v-2.104
			C24.799,16.723,24.507,16.431,24.147,16.431z"/>
	</g>
	<g>
		<polygon fill="#FFFFFF" points="31.858,25.986 31.858,22.896 4.16,22.896 4.16,25.986 3,31.52 33.017,31.52 		"/>
	</g>
	<g>
		<path fill="#19202E" d="M14.907,25.316c-0.974,0-1.764,0.79-1.764,1.764v4.439h3.528V27.08
			C16.672,26.107,15.882,25.316,14.907,25.316z"/>
	</g>
</g>
</svg>
