<?xml version="1.0" encoding="utf-8"?>
<!-- Generator: Adobe Illustrator 17.0.0, SVG Export Plug-In . SVG Version: 6.00 Build 0)  -->
<!DOCTYPE svg PUBLIC "-//W3C//DTD SVG 1.1//EN" "http://www.w3.org/Graphics/SVG/1.1/DTD/svg11.dtd">
<svg version="1.1" id="Layer_1" xmlns="http://www.w3.org/2000/svg" xmlns:xlink="http://www.w3.org/1999/xlink" x="0px" y="0px"
	 width="36px" height="36px" viewBox="0 0 36 36" enable-background="new 0 0 36 36" xml:space="preserve">
<g>
	<g>
		<path fill="#FFFFFF" d="M9.873,16.177l0.298-0.17c0.013-0.008,0.02-0.02,0.02-0.033v-0.55c0-0.022-0.021-0.039-0.047-0.039H7.299
			c-0.026,0-0.047,0.018-0.047,0.039v0.55c0,0.013,0.008,0.025,0.02,0.033l0.292,0.169L7.301,28.427
			c-0.106,0.087-0.165,0.2-0.165,0.322c0,0.016,0.002,0.031,0.005,0.047l0.002,0.011c0.003,0.02,0.023,0.035,0.047,0.035h3.061
			c0.023,0,0.044-0.015,0.047-0.035l0.002-0.012c0.003-0.015,0.005-0.03,0.005-0.046c0-0.121-0.058-0.235-0.165-0.322L9.873,16.177z
			 M9.307,28.295H8.194c-0.142,0-0.257-0.098-0.257-0.218s0.115-0.218,0.257-0.218h1.113c0.143,0,0.258,0.098,0.258,0.218
			C9.564,28.197,9.449,28.295,9.307,28.295z"/>
		<path fill="#FFFFFF" d="M3.637,16.177l0.297-0.17c0.013-0.008,0.02-0.02,0.02-0.033v-0.55c0-0.022-0.021-0.039-0.047-0.039H1.063
			c-0.025,0-0.047,0.018-0.047,0.039v0.55c0,0.013,0.008,0.025,0.02,0.033l0.292,0.169l-0.263,12.25
			c-0.106,0.087-0.164,0.201-0.164,0.322c0,0.015,0.002,0.029,0.004,0.044l0.002,0.013c0.003,0.02,0.023,0.035,0.047,0.035h3.061
			c0.023,0,0.043-0.015,0.046-0.035l0.002-0.012c0.003-0.015,0.006-0.03,0.006-0.046c0-0.122-0.059-0.235-0.165-0.322L3.637,16.177z
			 M3.085,28.295H1.972c-0.142,0-0.258-0.098-0.258-0.218s0.115-0.218,0.258-0.218h1.113c0.142,0,0.257,0.098,0.257,0.218
			C3.343,28.197,3.228,28.295,3.085,28.295z"/>
		<path fill="#FFFFFF" d="M0.595,14.973c0,0.021,0.021,0.039,0.047,0.039h34.715c0.026,0,0.047-0.018,0.047-0.039v-0.661H0.595
			V14.973z"/>
		<path fill="#FFFFFF" d="M34.819,16.177l0.297-0.17c0.013-0.008,0.02-0.02,0.02-0.033v-0.55c0-0.022-0.021-0.039-0.047-0.039
			h-2.845c-0.026,0-0.047,0.018-0.047,0.039v0.55c0,0.013,0.008,0.025,0.02,0.033l0.292,0.169l-0.26,12.251
			c-0.106,0.087-0.165,0.2-0.165,0.322c0,0.017,0.003,0.033,0.007,0.058c0.003,0.019,0.023,0.035,0.046,0.035h3.061
			c0.023,0,0.043-0.015,0.047-0.034c0.004-0.02,0.008-0.039,0.008-0.059c0-0.122-0.059-0.235-0.165-0.322L34.819,16.177z
			 M34.193,28.295h-1.114c-0.142,0-0.258-0.098-0.258-0.218s0.116-0.218,0.258-0.218h1.113c0.142,0,0.257,0.098,0.257,0.218
			C34.451,28.197,34.335,28.295,34.193,28.295z"/>
		<path fill="#FFFFFF" d="M12.87,8.807v2.513h10.27V9.293h-0.009V8.815h0.009V8.8h0.461c0.007-0.007,0.013-0.015,0.013-0.025V8.254
			c0-0.022-0.021-0.039-0.047-0.039h-2.4c-0.036-0.044-0.08-0.098-0.089-0.142c-0.013-0.06-0.022-0.079-0.031-0.095
			c-0.004-0.008-0.007-0.014-0.013-0.052c-0.012-0.081,0.011-0.166,0.034-0.255l0.003-0.011c0.02-0.074,0.018-0.103,0.016-0.148
			c-0.001-0.017-0.002-0.037-0.002-0.064c0-0.069,0-0.252,0.039-0.289c0.001-0.001,0.017-0.015,0.109-0.015
			c0.052,0,0.11,0.004,0.158,0.008c0.022,0.002,0.043,0.003,0.061,0.004l0.032,0.001c0.062,0.003,0.062,0.003,0.106,0.032
			c0.055,0.038,0.097,0.097,0.121,0.133c0.017,0.03,0.025,0.215-0.015,0.304c-0.02,0.043-0.036,0.066-0.05,0.085
			c-0.017,0.023-0.032,0.046-0.047,0.09c-0.027,0.084-0.01,0.149,0.057,0.205c0.018,0.015,0.042,0.033,0.074,0.033
			c0.028,0,0.047-0.013,0.064-0.024c0.008-0.006,0.018-0.012,0.032-0.018c0.076-0.036,0.08-0.084,0.087-0.154
			c0.001-0.02,0.003-0.055,0.006-0.095c0.005-0.084,0.012-0.211,0.024-0.252c0.009-0.029,0.066-0.32-0.01-0.399
			c-0.02-0.022-0.048-0.041-0.074-0.059c-0.042-0.029-0.082-0.057-0.102-0.101c-0.011-0.025,0.014-0.108,0.034-0.174
			c0.036-0.12,0.077-0.256,0.036-0.355c-0.037-0.092-0.079-0.17-0.11-0.226c-0.019-0.036-0.035-0.066-0.04-0.081
			c-0.001-0.003-0.001-0.007-0.001-0.009c0.001,0.001,0.003,0.002,0.005,0.004l0.028,0.016c0.056,0.034,0.074,0.052,0.185,0.033
			c0.08-0.013,0.095-0.045,0.104-0.08c0.004-0.014,0.007-0.025,0.022-0.039c0.062-0.058,0.042-0.131,0.023-0.201
			c-0.005-0.015-0.009-0.031-0.012-0.047c-0.009-0.044,0.006-0.111,0.019-0.171c0.011-0.047,0.02-0.09,0.02-0.127
			c0-0.06-0.009-0.143-0.024-0.207c0.054-0.041,0.076-0.097,0.06-0.154c-0.01-0.038-0.042-0.061-0.085-0.061
			c-0.037,0-0.078,0.018-0.111,0.037c-0.01-0.004-0.02-0.008-0.032-0.011c-0.02-0.064-0.098-0.079-0.201-0.017
			c-0.179,0.013-0.283,0.12-0.352,0.19l-0.019,0.02c-0.044,0.044-0.116,0.228-0.213,0.483c-0.036,0.094-0.077,0.2-0.09,0.223
			c-0.013,0.011-0.018,0.026-0.024,0.043c-0.016,0.042-0.035,0.095-0.147,0.104c-0.503,0.043-0.57,0.095-0.639,0.176
			c-0.006,0.007-0.012,0.014-0.018,0.021c-0.105,0.114-0.083,0.421-0.052,0.502c0.018,0.044,0.058,0.119,0.101,0.199
			c0.046,0.085,0.098,0.181,0.107,0.215s-0.034,0.224-0.059,0.338c-0.022,0.096-0.041,0.179-0.043,0.218
			c-0.007,0.104,0.093,0.208,0.213,0.324c0.029,0.027,0.051,0.06,0.069,0.093h-0.637l-0.065-2.004
			c-0.001-0.021-0.021-0.038-0.045-0.039l-0.213-0.005c-0.094-0.155-0.159-0.309-0.143-0.342c0.009-0.02,0.02-0.039,0.032-0.056
			c0.031-0.051,0.063-0.103,0.047-0.19c-0.003-0.018-0.007-0.037-0.011-0.055c-0.016-0.07-0.032-0.151-0.004-0.181
			c0.051-0.053,0.022-0.194-0.008-0.27c-0.025-0.064-0.071-0.144-0.15-0.162c-0.083-0.019-0.166-0.016-0.244,0.007
			c-0.012-0.069-0.022-0.232-0.03-0.366c-0.02-0.34-0.034-0.505-0.07-0.551l-0.025-0.031c-0.058-0.074-0.122-0.159-0.218-0.192
			c-0.019-0.007-0.039-0.01-0.058-0.01c-0.104,0-0.182,0.093-0.182,0.175l0.001,0.028c0.002,0.088-0.001,0.163-0.069,0.18
			c-0.08,0.02-0.168-0.059-0.173-0.125c-0.003-0.044,0.035-0.103,0.069-0.154c0.022-0.032,0.042-0.063,0.055-0.092l0.008-0.019
			c0.022-0.05,0.049-0.112,0.013-0.163c-0.024-0.033-0.068-0.052-0.135-0.059c-0.055-0.006-0.112-0.008-0.166-0.008
			c-0.116,0-0.202,0.013-0.257,0.038V3.087c0.286-0.044,0.497-0.254,0.497-0.505c0-0.224-0.173-0.422-0.423-0.488l-0.001-0.009
			c0.009-0.021,0.014-0.039,0.017-0.053c0.015-0.005,0.049-0.011,0.075-0.016c0.1-0.018,0.236-0.042,0.261-0.146
			c0.008-0.034,0.078-0.094,0.145-0.152c0.15-0.129,0.356-0.306,0.296-0.508c-0.008-0.025-0.032-0.042-0.063-0.042
			c-0.041,0-0.09,0.028-0.15,0.065c-0.012,0.007-0.021,0.013-0.027,0.016c-0.005,0.002-0.02,0.009-0.041,0.017
			c-0.206,0.082-0.424,0.179-0.482,0.272c-0.014,0.023-0.021,0.047-0.028,0.068c-0.012,0.039-0.018,0.053-0.044,0.059
			c-0.001-0.031-0.006-0.058-0.013-0.083c0.001-0.008,0.004-0.016,0.007-0.024c0.013-0.05,0.032-0.119-0.012-0.166
			c-0.025-0.027-0.065-0.04-0.12-0.04c-0.05,0-0.089,0.013-0.113,0.038c-0.043,0.042-0.03,0.104-0.021,0.153
			c0.004,0.017,0.007,0.033,0.009,0.036c-0.006,0.022-0.012,0.048-0.015,0.076c-0.029-0.007-0.034-0.02-0.047-0.059
			c-0.006-0.021-0.013-0.044-0.028-0.069c-0.058-0.094-0.289-0.195-0.485-0.272c-0.02-0.008-0.033-0.014-0.038-0.016
			c-0.006-0.003-0.015-0.009-0.025-0.015c-0.061-0.038-0.111-0.066-0.152-0.066c-0.031,0-0.056,0.016-0.063,0.041
			c-0.06,0.203,0.145,0.38,0.295,0.509c0.068,0.058,0.137,0.118,0.146,0.152c0.025,0.102,0.161,0.127,0.261,0.145
			c0.025,0.005,0.058,0.011,0.074,0.017c0.003,0.016,0.009,0.035,0.019,0.058l-0.002,0.013c-0.252,0.066-0.425,0.264-0.425,0.489
			c0,0.251,0.211,0.461,0.497,0.505v0.616c-0.017,0.01-0.032,0.02-0.044,0.03c-0.033,0.028-0.06,0.049-0.083,0.065
			c-0.021-0.031-0.066-0.071-0.142-0.054L17.315,3.75c-0.097,0.019-0.216,0.043-0.238,0.166c-0.022,0.124-0.069,0.64,0.028,0.896
			c0.079,0.211,0.086,0.578,0.086,0.708c-0.016,0.012-0.053,0.035-0.086,0.056c-0.114,0.071-0.278,0.172-0.361,0.282
			c-0.001-0.062,0.002-0.133,0.002-0.166c0.001-0.023,0.001-0.042,0.001-0.052c0-0.017,0.011-0.047,0.023-0.08
			c0.027-0.073,0.06-0.164,0.033-0.252l-0.011-0.035c-0.029-0.093-0.042-0.135-0.145-0.2c-0.018-0.011-0.069-0.028-0.128-0.028
			c-0.062,0-0.119,0.018-0.164,0.051c-0.106,0.077-0.123,0.173-0.136,0.249c-0.005,0.031-0.007,0.089-0.008,0.156
			c-0.001,0.063-0.003,0.171-0.012,0.19c-0.013,0.019-0.018,0.052-0.033,0.175c-0.014,0.107-0.041,0.33-0.078,0.361
			c-0.071,0.055-0.265,0.267-0.23,0.505c0.027,0.181,0.101,0.385,0.141,0.494c0.008,0.022,0.014,0.04,0.019,0.052
			c0.011,0.032,0.015,0.098,0.02,0.163c0.006,0.08,0.011,0.162,0.03,0.217c0.028,0.086,0.058,0.313,0.071,0.422l0.003,0.026
			c0.006,0.042,0.01,0.077,0.014,0.109h-0.852c0.018-0.033,0.04-0.065,0.068-0.093c0.121-0.115,0.221-0.219,0.214-0.324
			c-0.003-0.038-0.021-0.121-0.043-0.216c-0.025-0.114-0.068-0.305-0.059-0.34c0.009-0.034,0.06-0.13,0.106-0.214
			c0.042-0.08,0.083-0.156,0.1-0.2c0.032-0.081,0.055-0.388-0.052-0.502c-0.006-0.007-0.012-0.014-0.018-0.021
			c-0.068-0.082-0.135-0.134-0.64-0.176c-0.112-0.009-0.131-0.062-0.146-0.104c-0.005-0.017-0.011-0.031-0.023-0.042
			c-0.013-0.022-0.054-0.128-0.09-0.222c-0.098-0.256-0.171-0.441-0.215-0.485l-0.019-0.019c-0.072-0.075-0.181-0.188-0.375-0.193
			l-0.026-0.001c-0.092,0-0.162,0.014-0.212,0.043c-0.084-0.038-0.147-0.017-0.162,0.042c-0.014,0.054,0.004,0.105,0.05,0.145
			c-0.012,0.062-0.02,0.133-0.02,0.185c0,0.037,0.01,0.08,0.02,0.127c0.014,0.06,0.028,0.127,0.019,0.171
			c-0.004,0.016-0.008,0.032-0.012,0.047c-0.019,0.07-0.039,0.142,0.023,0.201c0.016,0.014,0.019,0.025,0.022,0.039
			c0.009,0.035,0.025,0.067,0.104,0.08c0.031,0.005,0.053,0.008,0.071,0.008c0.048,0,0.075-0.016,0.115-0.041l0.027-0.016
			c0.002-0.001,0.004-0.003,0.005-0.004c0,0.003-0.001,0.006-0.002,0.009c-0.004,0.014-0.02,0.046-0.04,0.082
			c-0.03,0.057-0.072,0.133-0.11,0.225c-0.04,0.099,0.001,0.235,0.037,0.355c0.02,0.066,0.044,0.149,0.033,0.174
			c-0.019,0.045-0.059,0.072-0.101,0.101c-0.026,0.018-0.053,0.036-0.073,0.059C13.808,7.17,13.856,7.45,13.87,7.494
			c0.012,0.04,0.019,0.166,0.024,0.248c0.002,0.042,0.004,0.078,0.008,0.108c0.005,0.061,0.01,0.109,0.086,0.145
			c0.013,0.006,0.022,0.013,0.031,0.018c0.018,0.011,0.037,0.024,0.065,0.024c0.032,0,0.056-0.017,0.074-0.033
			c0.066-0.057,0.084-0.122,0.055-0.205c-0.015-0.044-0.03-0.066-0.047-0.09c-0.013-0.019-0.03-0.042-0.049-0.085
			c-0.041-0.087-0.032-0.273-0.015-0.302c0.021-0.031,0.063-0.094,0.121-0.133c0.044-0.03,0.044-0.03,0.106-0.033l0.032-0.001
			c0.018-0.001,0.039-0.002,0.062-0.004c0.048-0.004,0.106-0.008,0.157-0.008c0.092,0,0.108,0.014,0.11,0.015
			c0.039,0.037,0.039,0.22,0.039,0.289c0,0.027-0.001,0.048-0.002,0.065c-0.002,0.044-0.004,0.074,0.015,0.147l0.003,0.011
			c0.023,0.089,0.046,0.173,0.035,0.255c-0.006,0.038-0.009,0.044-0.013,0.052c-0.009,0.016-0.019,0.035-0.031,0.095
			c-0.009,0.045-0.053,0.098-0.09,0.142h-2.212c-0.026,0-0.047,0.018-0.047,0.039v0.521c0,0.015,0.011,0.025,0.025,0.032h0.458
			C12.87,8.806,12.87,8.807,12.87,8.807z M19.533,7.515c0.001,0,0.002,0,0.002,0c0.006,0.01,0.008,0.037,0.01,0.05
			c0.002,0.017,0.003,0.033,0.006,0.044c0.008,0.031,0.025,0.352,0.038,0.607h-0.036C19.518,7.899,19.501,7.572,19.533,7.515z
			 M18.917,7.801c0.018-0.024,0.024-0.064,0.033-0.128c0.003-0.025,0.009-0.063,0.016-0.093c0.013,0.038,0.031,0.112,0.048,0.252
			c0.007,0.063-0.016,0.243-0.036,0.383h-0.069C18.904,8.018,18.906,7.829,18.917,7.801z M17.288,7.548
			c0.035,0.001,0.085,0.004,0.137,0.008c0.086,0.005,0.174,0.01,0.219,0.008c0.047-0.003,0.197-0.001,0.338,0
			c0.144,0.001,0.281,0.002,0.313,0c0.035-0.003,0.123-0.009,0.194-0.014c-0.046,0.061-0.084,0.139-0.039,0.187
			c0.043,0.046,0.097,0.095,0.193,0.096c0.012,0.059-0.02,0.256-0.035,0.344c-0.003,0.017-0.004,0.027-0.007,0.04h-1.337
			c0.009-0.159,0.027-0.454,0.032-0.512C17.3,7.647,17.293,7.586,17.288,7.548z M16.537,7.838c0.012-0.04,0.01-0.106,0.008-0.176
			c-0.001-0.044-0.003-0.11,0.002-0.152c0.003,0.016,0.061,0.02,0.063,0.047c0.001,0.017,0.008,0.114,0.01,0.145
			c0.008,0.112-0.002,0.205,0.021,0.258c0.009,0.023-0.004,0.136,0.067,0.158l0.02,0.006c0.061,0.019,0.153,0.036,0.152-0.028
			c-0.001-0.092,0.013-0.279-0.021-0.354c-0.03-0.066,0.021-0.221,0.021-0.262c0.015-0.002,0.058,0,0.086,0.004
			c0.012,0.117,0.055,0.542,0.028,0.666L16.98,8.217h-0.43C16.535,8.062,16.524,7.886,16.537,7.838z"/>
		<path fill="#FFFFFF" d="M2.261,10.383v0.937h10.048V9.293H1.672c-0.026,0-0.047,0.018-0.047,0.039V9.89
			c0,0.011,0.006,0.022,0.016,0.03L2.261,10.383z"/>
		<path fill="#FFFFFF" d="M28.583,16.177l0.297-0.17c0.013-0.008,0.02-0.02,0.02-0.033v-0.55c0-0.022-0.021-0.039-0.047-0.039
			h-2.844c-0.025,0-0.047,0.018-0.047,0.039v0.55c0,0.013,0.008,0.025,0.02,0.033l0.292,0.169l-0.263,12.25
			c-0.106,0.087-0.164,0.201-0.164,0.322c0,0.016,0.002,0.03,0.004,0.045l0.002,0.012c0.003,0.02,0.023,0.035,0.046,0.035h3.061
			c0.023,0,0.045-0.024,0.048-0.044c0.003-0.017,0.006-0.032,0.006-0.049c0-0.121-0.059-0.235-0.165-0.322L28.583,16.177z
			 M27.971,28.295h-1.113c-0.142,0-0.258-0.098-0.258-0.218s0.115-0.218,0.258-0.218h1.113c0.142,0,0.257,0.098,0.257,0.218
			C28.229,28.197,28.114,28.295,27.971,28.295z"/>
		<path fill="#FFFFFF" d="M33.738,10.383l0.621-0.464c0.01-0.008,0.016-0.019,0.016-0.03V9.331c0-0.021-0.021-0.039-0.047-0.039
			H23.701v2.027h10.038L33.738,10.383L33.738,10.383z"/>
		<path fill="#FFFFFF" d="M22.346,16.177l0.297-0.17c0.013-0.008,0.02-0.02,0.02-0.033v-0.55c0-0.022-0.02-0.039-0.047-0.039h-2.845
			c-0.026,0-0.047,0.018-0.047,0.039v0.55c0,0.013,0.008,0.025,0.02,0.033l0.292,0.169l-0.262,12.251
			c-0.106,0.087-0.165,0.2-0.165,0.322c0,0.016,0.002,0.031,0.005,0.047l0.001,0.011c0.003,0.02,0.023,0.035,0.047,0.035h3.061
			c0.024,0,0.044-0.015,0.046-0.035l0.002-0.012c0.003-0.015,0.005-0.03,0.005-0.046c0-0.121-0.059-0.235-0.166-0.322L22.346,16.177
			z M21.75,28.295h-1.113c-0.142,0-0.257-0.098-0.257-0.218s0.115-0.218,0.257-0.218h1.113c0.143,0,0.258,0.098,0.258,0.218
			C22.007,28.197,21.892,28.295,21.75,28.295z"/>
		<path fill="#FFFFFF" d="M16.11,16.177l0.297-0.17c0.013-0.008,0.02-0.02,0.02-0.033v-0.55c0-0.022-0.021-0.039-0.047-0.039h-2.845
			c-0.026,0-0.047,0.018-0.047,0.039v0.55c0,0.013,0.008,0.025,0.02,0.033l0.292,0.169l-0.261,12.251
			c-0.106,0.087-0.165,0.2-0.165,0.322c0,0.017,0.003,0.033,0.006,0.058c0.003,0.019,0.023,0.035,0.046,0.035h3.061
			c0.023,0,0.043-0.015,0.046-0.035l0.002-0.01c0.003-0.016,0.006-0.032,0.006-0.048c0-0.122-0.058-0.235-0.164-0.322L16.11,16.177z
			 M15.528,28.295h-1.113c-0.142,0-0.257-0.098-0.257-0.218s0.115-0.218,0.257-0.218h1.113c0.142,0,0.257,0.098,0.257,0.218
			C15.786,28.197,15.671,28.295,15.528,28.295z"/>
		<path fill="#FFFFFF" d="M35.818,11.738h-0.084v0.057H0.135v0.503c0,0.013,0.007,0.024,0.019,0.032l0.726,0.464v1.043h34.239
			v-1.043l0.726-0.464c0.012-0.007,0.019-0.019,0.019-0.032v-0.52C35.865,11.756,35.844,11.738,35.818,11.738z"/>
	</g>
</g>
</svg>
