<?xml version="1.0" encoding="utf-8"?>
<!-- Generator: Adobe Illustrator 17.0.0, SVG Export Plug-In . SVG Version: 6.00 Build 0)  -->
<!DOCTYPE svg PUBLIC "-//W3C//DTD SVG 1.1//EN" "http://www.w3.org/Graphics/SVG/1.1/DTD/svg11.dtd">
<svg version="1.1" id="Layer_1" xmlns="http://www.w3.org/2000/svg" xmlns:xlink="http://www.w3.org/1999/xlink" x="0px" y="0px"
	 width="36px" height="36px" viewBox="0 0 36 36" enable-background="new 0 0 36 36" xml:space="preserve">
<g>
	<path fill="#FFFFFF" d="M20.761,8.833c1.3,0,2.354-1.054,2.354-2.353c0-1.299-1.054-2.353-2.354-2.353S18.407,5.18,18.407,6.48
		C18.408,7.779,19.461,8.833,20.761,8.833z"/>
	<path fill="#FFFFFF" d="M27.636,13.922l-0.154,0.002l0.068-0.548c0.019-0.159-0.093-0.303-0.252-0.324
		c-0.159-0.02-0.304,0.092-0.324,0.252l-0.077,0.625l-2.928,0.028l-2.61-3.568c-0.271-0.511-0.776-0.885-1.388-1.082
		c-1.162-0.371-2.465,0.289-2.958,1.749l-4.127,13.058c-0.015,0.016-0.032,0.029-0.045,0.046L8.423,30.51
		c-0.263,0.379-0.028,0.999,0.526,1.385c0.554,0.386,1.217,0.39,1.481,0.012c0,0,4.728-6.632,4.779-6.783l1.82-3.814l3.208,3.064
		v7.474c0,0.499,0.559,0.902,1.249,0.902c0.691,0,1.251-0.405,1.251-0.902c0,0,0-6.579,0-7.886c0-1.307-3.533-4.568-3.533-4.568
		l1.709-5.745l1.426,1.951c0.018,0.024,0.043,0.043,0.068,0.061c0.145,0.35,0.417,0.59,0.732,0.588l3.473-0.032l-1.995,16.064
		c-0.02,0.16,0.093,0.305,0.252,0.324c0.16,0.019,0.305-0.093,0.324-0.252l2.004-16.142l0.451-0.004
		c0.462-0.004,0.833-0.517,0.83-1.147C28.475,14.429,28.098,13.919,27.636,13.922z"/>
	<path fill="#FFFFFF" d="M10.865,17.678c0.837,0.34,1.81,0.33,2.619-0.084c0.628-0.321,1.118-0.863,1.329-1.558
		c0.501-1.652,1.001-3.303,1.501-4.955c0.197-0.692,0.114-1.418-0.238-2.047c-0.444-0.793-1.248-1.342-2.134-1.523
		c-0.721-0.147-1.438-0.041-2.031,0.262c-0.626,0.32-1.141,0.888-1.331,1.573c-0.5,1.651-1.001,3.302-1.501,4.953
		c-0.211,0.697-0.104,1.42,0.24,2.035C9.647,16.914,10.182,17.399,10.865,17.678z"/>
</g>
</svg>
