<?xml version="1.0" encoding="utf-8"?>
<!-- Generator: Adobe Illustrator 17.0.0, SVG Export Plug-In . SVG Version: 6.00 Build 0)  -->
<!DOCTYPE svg PUBLIC "-//W3C//DTD SVG 1.1//EN" "http://www.w3.org/Graphics/SVG/1.1/DTD/svg11.dtd">
<svg version="1.1" id="Layer_1" xmlns="http://www.w3.org/2000/svg" xmlns:xlink="http://www.w3.org/1999/xlink" x="0px" y="0px"
	 width="36px" height="36px" viewBox="39.861 39.86 36 36" enable-background="new 39.861 39.86 36 36" xml:space="preserve">
<path fill="#FFFFFF" d="M59.789,43.34c0-0.968,0.785-1.752,1.752-1.752h3.913c0.968,0,1.752,0.785,1.752,1.752v1.853
	c0,0.968-0.785,1.752-1.752,1.752h-3.913c-0.968,0-1.752-0.785-1.752-1.752V43.34L59.789,43.34z M43.982,47.843h11.951v18.956
	H39.861L43.982,47.843L43.982,47.843z M41.393,67.697h8.886l1.532,6.435H39.861L41.393,67.697L41.393,67.697z M48.515,43.34
	c0-0.968,0.785-1.752,1.752-1.752h3.913c0.968,0,1.752,0.785,1.752,1.752v1.853c0,0.968-0.785,1.752-1.752,1.752h-3.913
	c-0.968,0-1.752-0.785-1.752-1.752V43.34L48.515,43.34z M56.831,53.406h2.06v13.393h-2.06V53.406L56.831,53.406z M71.74,47.843
	l4.121,18.956H59.789V47.843H71.74L71.74,47.843z M74.329,67.697l1.532,6.435H63.91l1.532-6.435H74.329L74.329,67.697z"/>
</svg>
