<?xml version="1.0" encoding="utf-8"?>
<!-- Generator: Adobe Illustrator 17.0.0, SVG Export Plug-In . SVG Version: 6.00 Build 0)  -->
<!DOCTYPE svg PUBLIC "-//W3C//DTD SVG 1.1//EN" "http://www.w3.org/Graphics/SVG/1.1/DTD/svg11.dtd">
<svg version="1.1" id="Layer_1" xmlns="http://www.w3.org/2000/svg" xmlns:xlink="http://www.w3.org/1999/xlink" x="0px" y="0px"
	 width="36px" height="36px" viewBox="0 0 36 36" enable-background="new 0 0 36 36" xml:space="preserve">
<g>
	<path fill="#FFFFFF" d="M0.261,32.545c-0.512,0,6.244-17.176,6.755-16.759c0.512,0.42,1.433,2.096,1.433,2.096
		S15,1.962,15.512,1.754c0.512-0.211,4.299,3.35,4.606,3.77c0.307,0.42,4.606,14.033,4.913,13.404s0.895-3.823,1.586-4.607
		c0.364-0.413,1.689,1.465,1.996,1.257c0.307-0.211,0.921-1.885,1.535-1.467c0.614,0.417,5.937,17.438,5.604,17.962
		c-0.333,0.524-5.911-13.353-5.911-13.353l-1.74-1.467l-3.275,14.454L18.48,16.834L16.126,5.941c0,0-7.498,16.601-7.702,15.762
		c0,0-1.305-3.195-1.817-2.358C6.095,20.186,0.773,32.545,0.261,32.545z"/>
</g>
</svg>
