<?xml version="1.0" encoding="utf-8"?>
<!-- Generator: Adobe Illustrator 17.0.0, SVG Export Plug-In . SVG Version: 6.00 Build 0)  -->
<!DOCTYPE svg PUBLIC "-//W3C//DTD SVG 1.1//EN" "http://www.w3.org/Graphics/SVG/1.1/DTD/svg11.dtd">
<svg version="1.1" id="Layer_1" xmlns="http://www.w3.org/2000/svg" xmlns:xlink="http://www.w3.org/1999/xlink" x="0px" y="0px"
	 width="36px" height="36px" viewBox="0 0 36 36" enable-background="new 0 0 36 36" xml:space="preserve">
<g>
	<path fill="#FFFFFF" d="M21.476,23.396v-11.24c0-0.507,0.568-0.805,0.985-0.518c1.091,0.752,2.214,1.8,2.974,3.209
		c0.24,0.447,0.803,0.644,1.212,0.343c0.487-0.358,0.74-0.967,0.608-1.558c-1.06-4.802-4.582-8.301-7.657-9.927
		C18.613,3.187,17.5,4.015,17.5,5.128v12.863c0,0.619-0.525,1.093-1.144,1.118c-1.007,0.043-2.184,0.21-3.004,0.518
		c-3.391,1.262-5.36,4.38-4.398,6.968c0.962,2.588,4.491,3.663,7.882,2.401c2.795-1.04,4.623-3.345,4.638-5.572
		C21.474,23.414,21.466,23.396,21.476,23.396L21.476,23.396z"/>
</g>
</svg>
