<?xml version="1.0" encoding="utf-8"?>
<!-- Generator: Adobe Illustrator 17.0.0, SVG Export Plug-In . SVG Version: 6.00 Build 0)  -->
<!DOCTYPE svg PUBLIC "-//W3C//DTD SVG 1.1//EN" "http://www.w3.org/Graphics/SVG/1.1/DTD/svg11.dtd">
<svg version="1.1" id="Layer_1" xmlns="http://www.w3.org/2000/svg" xmlns:xlink="http://www.w3.org/1999/xlink" x="0px" y="0px"
	 width="500px" height="500px" viewBox="0 0 500 500" enable-background="new 0 0 500 500" xml:space="preserve">
<g>
	<path fill="#303A3A" d="M12.7,2.628c0.726,0,1.315-0.589,1.315-1.314S13.426,0,12.7,0s-1.315,0.588-1.315,1.314
		C11.386,2.04,11.974,2.628,12.7,2.628z"/>
	<path fill="#303A3A" d="M16.54,5.471l-0.086,0.001l0.038-0.306c0.011-0.089-0.052-0.169-0.141-0.181
		c-0.089-0.011-0.17,0.051-0.181,0.141l-0.043,0.349L14.492,5.49l-1.458-1.993c-0.151-0.285-0.433-0.494-0.775-0.604
		c-0.649-0.207-1.377,0.161-1.652,0.977l-2.305,7.293c-0.008,0.009-0.018,0.016-0.025,0.026L5.81,14.736
		c-0.147,0.212-0.016,0.558,0.294,0.774c0.309,0.216,0.68,0.218,0.827,0.007c0,0,2.641-3.704,2.669-3.788l1.016-2.13l1.792,1.711
		v4.174c0,0.279,0.312,0.504,0.698,0.504s0.699-0.226,0.699-0.504c0,0,0-3.674,0-4.404s-1.973-2.551-1.973-2.551l0.954-3.209
		l0.796,1.09c0.01,0.013,0.024,0.024,0.038,0.034c0.081,0.195,0.233,0.33,0.409,0.328l1.94-0.018l-1.114,8.972
		c-0.011,0.089,0.052,0.17,0.141,0.181s0.17-0.052,0.181-0.141l1.119-9.015l0.252-0.002c0.258-0.002,0.465-0.289,0.464-0.641
		C17.009,5.754,16.798,5.469,16.54,5.471z"/>
	<path fill="#303A3A" d="M7.173,7.568c0.467,0.19,1.011,0.184,1.463-0.047c0.351-0.179,0.624-0.482,0.742-0.87
		c0.28-0.923,0.559-1.845,0.838-2.767c0.11-0.386,0.064-0.792-0.133-1.143C9.836,2.298,9.387,1.991,8.892,1.89
		C8.489,1.808,8.089,1.867,7.758,2.036C7.408,2.215,7.12,2.532,7.014,2.915C6.735,3.837,6.455,4.759,6.176,5.681
		C6.058,6.07,6.118,6.474,6.31,6.818C6.493,7.142,6.792,7.412,7.173,7.568z"/>
</g>
<g>
	<path fill="#303A3A" d="M0.961,49.544c-0.282,0,3.433-9.444,3.714-9.215c0.282,0.231,0.788,1.153,0.788,1.153
		s3.602-8.754,3.884-8.868c0.282-0.116,2.364,1.842,2.533,2.073s2.533,7.716,2.701,7.37c0.169-0.346,0.492-2.102,0.872-2.533
		c0.2-0.227,0.929,0.806,1.098,0.691c0.169-0.116,0.506-1.036,0.844-0.807s3.265,9.588,3.081,9.877s-3.25-7.342-3.25-7.342
		l-0.957-0.807l-1.801,7.948l-3.489-8.178l-1.294-5.99c0,0-4.123,9.128-4.235,8.667c0,0-0.718-1.757-0.999-1.297
		C4.169,42.748,1.242,49.544,0.961,49.544z"/>
</g>
<path fill="#303A3A" d="M20.977,73.408L20.977,73.408l0.001-0.78c-0.224,0.055-0.415,0.154-0.556,0.281
	c-0.211,0.135-0.343,0.32-0.347,0.524h-0.001c0,0.419-0.536,0.759-1.198,0.759c-0.169,0-0.329-0.022-0.475-0.063
	c-0.383-0.139-0.647-0.412-0.647-0.73c0-0.459-0.542-0.83-1.211-0.83c-0.504,0-0.935,0.211-1.117,0.511
	c-0.089,0.106-0.143,0.224-0.143,0.353h0.004c0,0.419-0.536,0.759-1.198,0.759c-0.319,0-0.607-0.08-0.821-0.208
	c-0.217-0.15-0.352-0.356-0.352-0.584c0-0.459-0.542-0.83-1.211-0.83c-0.655,0-1.186,0.356-1.208,0.801h-0.006
	c0,0.169-0.075,0.326-0.201,0.457c-0.215,0.204-0.581,0.339-0.997,0.339c-0.662,0-1.198-0.34-1.198-0.759
	c0-0.075-0.022-0.145-0.054-0.213c-0.118-0.373-0.602-0.653-1.182-0.653c-0.668,0-1.211,0.372-1.211,0.83h0.004
	c0,0.282-0.207,0.53-0.52,0.681c-0.183,0.072-0.397,0.115-0.627,0.115c-0.662,0-1.198-0.34-1.198-0.759
	c0-0.173-0.095-0.33-0.248-0.457c-0.211-0.244-0.595-0.41-1.038-0.41c-0.669,0-1.211,0.372-1.211,0.83
	c0,0.362-0.339,0.669-0.811,0.782v0.843c0.375-0.062,0.711-0.212,0.979-0.42c0.443-0.278,0.727-0.698,0.727-1.169h0.004
	c0-0.145,0.179-0.263,0.399-0.263c0.082,0,0.159,0.017,0.223,0.045c0.057,0.05,0.092,0.112,0.092,0.181
	c0,0.916,0.902,1.659,2.016,1.659c0.671,0,1.263-0.27,1.629-0.685c0.267-0.258,0.428-0.584,0.428-0.937
	c0-0.145,0.179-0.263,0.399-0.263c0.144,0,0.269,0.05,0.339,0.125c0.017,0.031,0.027,0.065,0.027,0.101
	c0,0.916,0.902,1.659,2.016,1.659c1.087,0,1.971-0.71,2.012-1.597h0.003c0-0.012,0.003-0.022,0.005-0.034H11.3
	c0-0.009,0.003-0.018,0.004-0.028c0.043-0.115,0.199-0.201,0.387-0.201c0.221,0,0.399,0.117,0.399,0.262
	c0,0.26,0.086,0.505,0.238,0.719c0.333,0.537,1.011,0.906,1.794,0.906c1.113,0,2.016-0.743,2.016-1.659
	c0-0.057,0.024-0.11,0.065-0.154c0.072-0.046,0.169-0.073,0.276-0.073c0.22,0,0.399,0.117,0.399,0.262
	c0,0.419,0.224,0.799,0.585,1.074c0.368,0.338,0.902,0.552,1.498,0.552C20.072,75.059,20.972,74.321,20.977,73.408 M20.978,76.019
	v-0.78c-0.224,0.054-0.415,0.153-0.556,0.281c-0.212,0.135-0.343,0.32-0.347,0.524h-0.001c0,0.419-0.536,0.759-1.198,0.759
	c-0.169,0-0.329-0.022-0.475-0.063c-0.383-0.139-0.647-0.412-0.647-0.731c0-0.459-0.542-0.83-1.211-0.83
	c-0.504,0-0.935,0.211-1.117,0.511c-0.089,0.106-0.143,0.225-0.143,0.353h0.004c0,0.419-0.536,0.759-1.198,0.759
	c-0.319,0-0.607-0.08-0.821-0.208c-0.217-0.15-0.352-0.356-0.352-0.584c0-0.459-0.542-0.83-1.211-0.83
	c-0.655,0-1.186,0.356-1.208,0.801h-0.006c0,0.169-0.075,0.325-0.201,0.457c-0.215,0.204-0.581,0.338-0.997,0.338
	c-0.662,0-1.198-0.34-1.198-0.758c0-0.075-0.022-0.145-0.053-0.213c-0.118-0.373-0.602-0.653-1.182-0.653
	c-0.668,0-1.211,0.372-1.211,0.83h0.004c0,0.282-0.207,0.53-0.52,0.681c-0.183,0.071-0.397,0.115-0.627,0.115
	c-0.662,0-1.198-0.339-1.198-0.758c0-0.173-0.095-0.33-0.248-0.457c-0.211-0.244-0.595-0.41-1.038-0.41
	c-0.669,0-1.211,0.372-1.211,0.83c0,0.362-0.339,0.669-0.811,0.782v0.844c0.375-0.062,0.711-0.212,0.979-0.42
	c0.443-0.278,0.727-0.698,0.727-1.169H1.71c0-0.145,0.179-0.263,0.399-0.263c0.082,0,0.159,0.017,0.223,0.044
	c0.057,0.05,0.092,0.112,0.092,0.182c0,0.917,0.902,1.659,2.016,1.659c0.671,0,1.263-0.27,1.629-0.685
	c0.267-0.257,0.428-0.584,0.428-0.937c0-0.145,0.179-0.263,0.399-0.263c0.144,0,0.269,0.05,0.339,0.125
	c0.017,0.031,0.027,0.065,0.027,0.101c0,0.917,0.902,1.659,2.016,1.659c1.087,0,1.971-0.709,2.012-1.596h0.003
	c0-0.012,0.003-0.023,0.005-0.034H11.3c0-0.009,0.003-0.018,0.004-0.028c0.043-0.115,0.199-0.201,0.387-0.201
	c0.221,0,0.399,0.117,0.399,0.263c0,0.26,0.086,0.505,0.238,0.718c0.333,0.537,1.011,0.907,1.794,0.907
	c1.113,0,2.016-0.743,2.016-1.659c0-0.057,0.024-0.109,0.065-0.154c0.072-0.045,0.169-0.073,0.276-0.073
	c0.221,0,0.399,0.117,0.399,0.263c0,0.419,0.224,0.798,0.585,1.074c0.369,0.337,0.902,0.552,1.498,0.552
	c1.109,0,2.009-0.738,2.015-1.65L20.978,76.019L20.978,76.019z M21.006,70.387v-0.78c-0.224,0.054-0.415,0.153-0.556,0.281
	c-0.212,0.135-0.343,0.32-0.347,0.524h-0.001c0,0.419-0.536,0.759-1.198,0.759c-0.169,0-0.329-0.022-0.475-0.063
	c-0.383-0.139-0.647-0.412-0.647-0.731c0-0.459-0.542-0.83-1.211-0.83c-0.504,0-0.935,0.211-1.117,0.511
	c-0.089,0.106-0.143,0.225-0.143,0.353h0.004c0,0.419-0.536,0.759-1.198,0.759c-0.319,0-0.607-0.08-0.821-0.208
	c-0.217-0.15-0.352-0.356-0.352-0.584c0-0.459-0.542-0.83-1.211-0.83c-0.655,0-1.186,0.356-1.208,0.801h-0.006
	c0,0.169-0.075,0.325-0.201,0.457c-0.215,0.204-0.581,0.338-0.997,0.338c-0.662,0-1.198-0.34-1.198-0.758
	c0-0.075-0.022-0.145-0.053-0.213C7.952,69.8,7.468,69.52,6.888,69.52c-0.668,0-1.211,0.372-1.211,0.83h0.004
	c0,0.282-0.207,0.53-0.52,0.681c-0.183,0.071-0.397,0.115-0.627,0.115c-0.662,0-1.198-0.339-1.198-0.758
	c0-0.173-0.095-0.33-0.248-0.457c-0.211-0.244-0.595-0.41-1.038-0.41c-0.669,0-1.211,0.372-1.211,0.83
	c0,0.362-0.339,0.669-0.811,0.782v0.844c0.375-0.062,0.711-0.212,0.979-0.42c0.443-0.278,0.727-0.698,0.727-1.169h0.004
	c0-0.145,0.179-0.263,0.399-0.263c0.082,0,0.159,0.017,0.223,0.044c0.057,0.05,0.092,0.112,0.092,0.182
	c0,0.917,0.902,1.659,2.016,1.659c0.671,0,1.263-0.27,1.629-0.685c0.267-0.257,0.428-0.584,0.428-0.937
	c0-0.145,0.179-0.263,0.399-0.263c0.144,0,0.269,0.05,0.339,0.125c0.017,0.031,0.027,0.065,0.027,0.101
	c0,0.917,0.902,1.659,2.016,1.659c1.087,0,1.971-0.709,2.012-1.596h0.003c0-0.012,0.003-0.023,0.005-0.034h0.003
	c0-0.009,0.003-0.018,0.004-0.028c0.043-0.115,0.199-0.201,0.387-0.201c0.221,0,0.399,0.117,0.399,0.263
	c0,0.26,0.086,0.505,0.238,0.718c0.333,0.537,1.011,0.907,1.794,0.907c1.113,0,2.016-0.743,2.016-1.659
	c0-0.057,0.024-0.109,0.065-0.154c0.072-0.045,0.169-0.073,0.276-0.073c0.221,0,0.399,0.117,0.399,0.263
	c0,0.419,0.224,0.798,0.585,1.074c0.369,0.337,0.902,0.552,1.498,0.552c1.109,0,2.009-0.738,2.015-1.65L21.006,70.387L21.006,70.387
	z"/>
<g>
	<g>
		<path fill="#303A3A" d="M5.666,135.587l0.163-0.093c0.007-0.004,0.011-0.011,0.011-0.018v-0.301c0-0.012-0.011-0.021-0.026-0.021
			H4.258c-0.014,0-0.026,0.01-0.026,0.021v0.301c0,0.007,0.004,0.014,0.011,0.018l0.16,0.092l-0.144,6.7
			c-0.058,0.048-0.09,0.109-0.09,0.176c0,0.009,0.001,0.017,0.003,0.026l0.001,0.006c0.002,0.011,0.013,0.019,0.026,0.019h1.674
			c0.013,0,0.024-0.008,0.026-0.019l0.001-0.007c0.002-0.008,0.003-0.016,0.003-0.025c0-0.066-0.032-0.129-0.09-0.176L5.666,135.587
			z M5.356,142.214H4.748c-0.078,0-0.141-0.054-0.141-0.119c0-0.066,0.063-0.119,0.141-0.119h0.609c0.078,0,0.141,0.054,0.141,0.119
			C5.497,142.16,5.434,142.214,5.356,142.214z"/>
		<path fill="#303A3A" d="M2.256,135.587l0.162-0.093c0.007-0.004,0.011-0.011,0.011-0.018v-0.301c0-0.012-0.011-0.021-0.026-0.021
			H0.848c-0.014,0-0.026,0.01-0.026,0.021v0.301c0,0.007,0.004,0.014,0.011,0.018l0.16,0.092l-0.144,6.699
			c-0.058,0.048-0.09,0.11-0.09,0.176c0,0.008,0.001,0.016,0.002,0.024l0.001,0.007c0.002,0.011,0.013,0.019,0.026,0.019h1.674
			c0.013,0,0.024-0.008,0.025-0.019l0.001-0.007c0.002-0.008,0.003-0.016,0.003-0.025c0-0.067-0.032-0.129-0.09-0.176L2.256,135.587
			z M1.954,142.214H1.345c-0.078,0-0.141-0.054-0.141-0.119c0-0.066,0.063-0.119,0.141-0.119h0.609c0.078,0,0.141,0.054,0.141,0.119
			S2.032,142.214,1.954,142.214z"/>
		<path fill="#303A3A" d="M0.592,134.928c0,0.011,0.011,0.021,0.026,0.021h18.984c0.014,0,0.026-0.01,0.026-0.021v-0.361H0.592
			V134.928z"/>
		<path fill="#303A3A" d="M19.308,135.587l0.162-0.093c0.007-0.004,0.011-0.011,0.011-0.018v-0.301c0-0.012-0.011-0.021-0.026-0.021
			H17.9c-0.014,0-0.026,0.01-0.026,0.021v0.301c0,0.007,0.004,0.014,0.011,0.018l0.16,0.092l-0.142,6.7
			c-0.058,0.048-0.09,0.109-0.09,0.176c0,0.009,0.002,0.018,0.004,0.032c0.002,0.01,0.013,0.019,0.025,0.019h1.674
			c0.013,0,0.024-0.008,0.026-0.019c0.002-0.011,0.004-0.021,0.004-0.032c0-0.067-0.032-0.129-0.09-0.176L19.308,135.587z
			 M18.965,142.214h-0.609c-0.078,0-0.141-0.054-0.141-0.119c0-0.066,0.063-0.119,0.141-0.119h0.609
			c0.078,0,0.141,0.054,0.141,0.119C19.107,142.16,19.043,142.214,18.965,142.214z"/>
		<path fill="#303A3A" d="M7.305,131.556v1.374h5.616v-1.108h-0.005v-0.261h0.005v-0.008h0.252c0.004-0.004,0.007-0.008,0.007-0.014
			v-0.285c0-0.012-0.011-0.021-0.026-0.021h-1.312c-0.02-0.024-0.044-0.054-0.049-0.078c-0.007-0.033-0.012-0.043-0.017-0.052
			c-0.002-0.004-0.004-0.008-0.007-0.028c-0.007-0.044,0.006-0.091,0.019-0.139l0.002-0.006c0.011-0.04,0.01-0.056,0.009-0.081
			c-0.001-0.009-0.001-0.02-0.001-0.035c0-0.038,0-0.138,0.021-0.158c0.001-0.001,0.009-0.008,0.06-0.008
			c0.028,0,0.06,0.002,0.086,0.004c0.012,0.001,0.024,0.002,0.033,0.002l0.017,0.001c0.034,0.002,0.034,0.002,0.058,0.018
			c0.03,0.021,0.053,0.053,0.066,0.073c0.009,0.016,0.014,0.118-0.008,0.166c-0.011,0.024-0.02,0.036-0.027,0.046
			c-0.009,0.013-0.017,0.025-0.026,0.049c-0.015,0.046-0.005,0.081,0.031,0.112c0.01,0.008,0.023,0.018,0.04,0.018
			c0.015,0,0.026-0.007,0.035-0.013c0.004-0.003,0.01-0.007,0.017-0.01c0.042-0.02,0.044-0.046,0.048-0.084
			c0.001-0.011,0.002-0.03,0.003-0.052c0.003-0.046,0.007-0.115,0.013-0.138c0.005-0.016,0.036-0.175-0.005-0.218
			c-0.011-0.012-0.026-0.022-0.04-0.032c-0.023-0.016-0.045-0.031-0.056-0.055c-0.006-0.014,0.008-0.059,0.019-0.095
			c0.02-0.066,0.042-0.14,0.02-0.194c-0.02-0.05-0.043-0.093-0.06-0.124c-0.01-0.02-0.019-0.036-0.022-0.044
			c-0.001-0.002-0.001-0.004-0.001-0.005c0.001,0.001,0.002,0.001,0.003,0.002l0.015,0.009c0.031,0.019,0.04,0.028,0.101,0.018
			c0.044-0.007,0.052-0.025,0.057-0.044c0.002-0.008,0.004-0.014,0.012-0.021c0.034-0.032,0.023-0.072,0.013-0.11
			c-0.003-0.008-0.005-0.017-0.007-0.026c-0.005-0.024,0.003-0.061,0.01-0.094c0.006-0.026,0.011-0.049,0.011-0.069
			c0-0.033-0.005-0.078-0.013-0.113c0.03-0.022,0.042-0.053,0.033-0.084c-0.005-0.021-0.023-0.033-0.046-0.033
			c-0.02,0-0.043,0.01-0.061,0.02c-0.005-0.002-0.011-0.004-0.017-0.006c-0.011-0.035-0.054-0.043-0.11-0.009
			c-0.098,0.007-0.155,0.066-0.192,0.104l-0.01,0.011c-0.024,0.024-0.063,0.125-0.116,0.264c-0.02,0.051-0.042,0.109-0.049,0.122
			c-0.007,0.006-0.01,0.014-0.013,0.024c-0.009,0.023-0.019,0.052-0.08,0.057c-0.275,0.024-0.312,0.052-0.349,0.096
			c-0.003,0.004-0.007,0.008-0.01,0.011c-0.057,0.062-0.045,0.23-0.028,0.275c0.01,0.024,0.032,0.065,0.055,0.109
			c0.025,0.046,0.054,0.099,0.059,0.118s-0.019,0.122-0.032,0.185c-0.012,0.053-0.022,0.098-0.024,0.119
			c-0.004,0.057,0.051,0.114,0.116,0.177c0.016,0.015,0.028,0.033,0.038,0.051h-0.348l-0.036-1.096
			c-0.001-0.011-0.011-0.021-0.025-0.021l-0.116-0.003c-0.051-0.085-0.087-0.169-0.078-0.187c0.005-0.011,0.011-0.021,0.017-0.031
			c0.017-0.028,0.034-0.056,0.026-0.104c-0.002-0.01-0.004-0.02-0.006-0.03c-0.009-0.038-0.017-0.083-0.002-0.099
			c0.028-0.029,0.012-0.106-0.004-0.148c-0.014-0.035-0.039-0.079-0.082-0.089c-0.045-0.01-0.091-0.009-0.133,0.004
			c-0.007-0.038-0.012-0.127-0.016-0.2c-0.011-0.186-0.019-0.276-0.038-0.301l-0.014-0.017c-0.032-0.04-0.067-0.087-0.119-0.105
			c-0.01-0.004-0.021-0.005-0.032-0.005c-0.057,0-0.1,0.051-0.1,0.096l0.001,0.015c0.001,0.048-0.001,0.089-0.038,0.098
			c-0.044,0.011-0.092-0.032-0.095-0.068c-0.002-0.024,0.019-0.056,0.038-0.084c0.012-0.018,0.023-0.034,0.03-0.05l0.004-0.01
			c0.012-0.027,0.027-0.061,0.007-0.089c-0.013-0.018-0.037-0.028-0.074-0.032c-0.03-0.003-0.061-0.004-0.091-0.004
			c-0.063,0-0.11,0.007-0.141,0.021v-0.264c0.156-0.024,0.272-0.139,0.272-0.276c0-0.122-0.095-0.231-0.231-0.267l-0.001-0.005
			c0.005-0.011,0.008-0.021,0.009-0.029c0.008-0.003,0.027-0.006,0.041-0.009c0.055-0.01,0.129-0.023,0.143-0.08
			c0.004-0.019,0.043-0.051,0.079-0.083c0.082-0.071,0.195-0.167,0.162-0.278c-0.004-0.014-0.017-0.023-0.034-0.023
			c-0.022,0-0.049,0.015-0.082,0.036c-0.007,0.004-0.011,0.007-0.015,0.009c-0.003,0.001-0.011,0.005-0.022,0.009
			c-0.113,0.045-0.232,0.098-0.264,0.149c-0.008,0.013-0.011,0.026-0.015,0.037c-0.007,0.021-0.01,0.029-0.024,0.032
			c-0.001-0.017-0.003-0.032-0.007-0.045c0.001-0.004,0.002-0.009,0.004-0.013c0.007-0.027,0.017-0.065-0.007-0.091
			c-0.014-0.015-0.036-0.022-0.066-0.022c-0.027,0-0.049,0.007-0.062,0.021c-0.024,0.023-0.016,0.057-0.011,0.084
			c0.002,0.009,0.004,0.018,0.005,0.02c-0.003,0.012-0.007,0.026-0.008,0.042c-0.016-0.004-0.019-0.011-0.026-0.032
			c-0.003-0.011-0.007-0.024-0.015-0.038c-0.032-0.051-0.158-0.107-0.265-0.149c-0.011-0.004-0.018-0.008-0.021-0.009
			c-0.003-0.002-0.008-0.005-0.014-0.008c-0.033-0.021-0.061-0.036-0.083-0.036c-0.017,0-0.031,0.009-0.034,0.022
			c-0.033,0.111,0.079,0.208,0.161,0.278c0.037,0.032,0.075,0.065,0.08,0.083c0.014,0.056,0.088,0.069,0.143,0.079
			c0.014,0.003,0.032,0.006,0.04,0.009c0.002,0.009,0.005,0.019,0.01,0.032l-0.001,0.007c-0.138,0.036-0.232,0.144-0.232,0.267
			c0,0.137,0.115,0.252,0.272,0.276v0.337c-0.009,0.005-0.017,0.011-0.024,0.016c-0.018,0.015-0.033,0.027-0.045,0.036
			c-0.011-0.017-0.036-0.039-0.078-0.03l-0.016,0.003c-0.053,0.01-0.118,0.024-0.13,0.091c-0.012,0.068-0.038,0.35,0.015,0.49
			c0.043,0.115,0.047,0.316,0.047,0.387c-0.009,0.007-0.029,0.019-0.047,0.031c-0.062,0.039-0.152,0.094-0.197,0.154
			c-0.001-0.034,0.001-0.073,0.001-0.091c0.001-0.013,0.001-0.023,0.001-0.028c0-0.009,0.006-0.026,0.013-0.044
			c0.015-0.04,0.033-0.09,0.018-0.138l-0.006-0.019c-0.016-0.051-0.023-0.074-0.079-0.109c-0.01-0.006-0.038-0.015-0.07-0.015
			c-0.034,0-0.065,0.01-0.09,0.028c-0.058,0.042-0.067,0.095-0.074,0.136c-0.003,0.017-0.004,0.049-0.004,0.085
			c-0.001,0.034-0.002,0.094-0.007,0.104c-0.007,0.01-0.01,0.028-0.018,0.096c-0.008,0.059-0.022,0.18-0.043,0.197
			c-0.039,0.03-0.145,0.146-0.126,0.276c0.015,0.099,0.055,0.211,0.077,0.27c0.004,0.012,0.008,0.022,0.01,0.028
			c0.006,0.018,0.008,0.054,0.011,0.089c0.003,0.044,0.006,0.089,0.016,0.119c0.015,0.047,0.032,0.171,0.039,0.231l0.002,0.014
			c0.003,0.023,0.005,0.042,0.008,0.06h-0.47c0.01-0.018,0.022-0.036,0.037-0.051c0.066-0.063,0.121-0.12,0.117-0.177
			c-0.002-0.021-0.011-0.066-0.024-0.118c-0.014-0.062-0.037-0.167-0.032-0.186s0.033-0.071,0.058-0.117
			c0.023-0.044,0.045-0.085,0.055-0.109c0.017-0.044,0.03-0.212-0.028-0.275c-0.003-0.004-0.007-0.008-0.01-0.011
			c-0.037-0.045-0.074-0.073-0.35-0.096c-0.061-0.005-0.072-0.034-0.08-0.057c-0.003-0.009-0.006-0.017-0.013-0.023
			c-0.007-0.012-0.03-0.07-0.049-0.121c-0.054-0.14-0.094-0.241-0.118-0.265l-0.01-0.01c-0.039-0.041-0.099-0.103-0.205-0.106
			l-0.014-0.001c-0.05,0-0.089,0.008-0.116,0.024c-0.046-0.021-0.08-0.009-0.089,0.023c-0.008,0.03,0.002,0.057,0.027,0.079
			c-0.007,0.034-0.011,0.073-0.011,0.101c0,0.02,0.005,0.044,0.011,0.069c0.008,0.033,0.015,0.069,0.01,0.094
			c-0.002,0.009-0.004,0.017-0.007,0.026c-0.01,0.038-0.021,0.078,0.013,0.11c0.009,0.008,0.01,0.014,0.012,0.021
			c0.005,0.019,0.014,0.037,0.057,0.044c0.017,0.003,0.029,0.004,0.039,0.004c0.026,0,0.041-0.009,0.063-0.022l0.015-0.009
			c0.001-0.001,0.002-0.002,0.003-0.002c0,0.002-0.001,0.003-0.001,0.005c-0.002,0.008-0.011,0.025-0.022,0.045
			c-0.016,0.031-0.039,0.073-0.06,0.123c-0.022,0.054,0.001,0.129,0.02,0.194c0.011,0.036,0.024,0.081,0.018,0.095
			c-0.01,0.025-0.032,0.039-0.055,0.055c-0.014,0.01-0.029,0.02-0.04,0.032c-0.039,0.041-0.013,0.194-0.005,0.218
			c0.007,0.022,0.01,0.091,0.013,0.136c0.001,0.023,0.002,0.043,0.004,0.059c0.003,0.033,0.005,0.06,0.047,0.079
			c0.007,0.003,0.012,0.007,0.017,0.01c0.01,0.006,0.02,0.013,0.036,0.013c0.017,0,0.031-0.009,0.04-0.018
			c0.036-0.031,0.046-0.067,0.03-0.112c-0.008-0.024-0.016-0.036-0.026-0.049c-0.007-0.01-0.016-0.023-0.027-0.046
			c-0.022-0.048-0.017-0.149-0.008-0.165c0.011-0.017,0.034-0.051,0.066-0.073c0.024-0.016,0.024-0.016,0.058-0.018l0.017-0.001
			c0.01-0.001,0.021-0.001,0.034-0.002c0.026-0.002,0.058-0.004,0.086-0.004c0.05,0,0.059,0.008,0.06,0.008
			c0.021,0.02,0.021,0.12,0.021,0.158c0,0.015-0.001,0.026-0.001,0.036c-0.001,0.024-0.002,0.04,0.008,0.08l0.002,0.006
			c0.013,0.049,0.025,0.095,0.019,0.139c-0.003,0.021-0.005,0.024-0.007,0.028c-0.005,0.009-0.01,0.019-0.017,0.052
			c-0.005,0.025-0.029,0.054-0.049,0.078h-1.21c-0.014,0-0.026,0.01-0.026,0.021v0.285c0,0.008,0.006,0.014,0.014,0.018
			L7.305,131.556L7.305,131.556z M10.949,130.85c0.001,0,0.001,0,0.001,0c0.003,0.005,0.004,0.02,0.005,0.027
			c0.001,0.009,0.002,0.018,0.003,0.024c0.004,0.017,0.014,0.192,0.021,0.332h-0.02C10.94,131.06,10.931,130.881,10.949,130.85z
			 M10.612,131.006c0.01-0.013,0.013-0.035,0.018-0.07c0.002-0.014,0.005-0.034,0.009-0.051c0.007,0.021,0.017,0.061,0.026,0.138
			c0.004,0.034-0.009,0.133-0.02,0.209h-0.038C10.605,131.125,10.606,131.022,10.612,131.006z M9.721,130.868
			c0.019,0.001,0.046,0.002,0.075,0.004c0.047,0.003,0.095,0.005,0.12,0.004c0.026-0.002,0.108-0.001,0.185,0
			c0.079,0.001,0.154,0.001,0.171,0c0.019-0.002,0.067-0.005,0.106-0.008c-0.025,0.033-0.046,0.076-0.021,0.102
			c0.024,0.025,0.053,0.052,0.106,0.053c0.007,0.032-0.011,0.14-0.019,0.188c-0.002,0.009-0.002,0.015-0.004,0.022H9.708
			c0.005-0.087,0.015-0.248,0.017-0.28C9.727,130.922,9.724,130.889,9.721,130.868z M9.31,131.027
			c0.007-0.022,0.005-0.058,0.004-0.096c-0.001-0.024-0.002-0.06,0.001-0.083c0.002,0.009,0.033,0.011,0.034,0.026
			c0.001,0.009,0.004,0.062,0.005,0.079c0.004,0.061-0.001,0.112,0.011,0.141c0.005,0.013-0.002,0.074,0.037,0.086l0.011,0.003
			c0.033,0.01,0.084,0.02,0.083-0.015c-0.001-0.05,0.007-0.153-0.011-0.194c-0.016-0.036,0.011-0.121,0.011-0.143
			c0.008-0.001,0.032,0,0.047,0.002c0.007,0.064,0.03,0.296,0.015,0.364l-0.008,0.037H9.317
			C9.309,131.149,9.303,131.053,9.31,131.027z"/>
		<path fill="#303A3A" d="M1.503,132.418v0.512h5.495v-1.108H1.181c-0.014,0-0.026,0.01-0.026,0.021v0.305
			c0,0.006,0.003,0.012,0.009,0.016L1.503,132.418z"/>
		<path fill="#303A3A" d="M15.898,135.587l0.162-0.093c0.007-0.004,0.011-0.011,0.011-0.018v-0.301c0-0.012-0.011-0.021-0.026-0.021
			H14.49c-0.014,0-0.026,0.01-0.026,0.021v0.301c0,0.007,0.004,0.014,0.011,0.018l0.16,0.092l-0.144,6.699
			c-0.058,0.048-0.09,0.11-0.09,0.176c0,0.009,0.001,0.016,0.002,0.025l0.001,0.007c0.002,0.011,0.013,0.019,0.025,0.019h1.674
			c0.013,0,0.025-0.013,0.026-0.024c0.002-0.009,0.003-0.018,0.003-0.027c0-0.066-0.032-0.129-0.09-0.176L15.898,135.587z
			 M15.563,142.214h-0.609c-0.078,0-0.141-0.054-0.141-0.119c0-0.066,0.063-0.119,0.141-0.119h0.609
			c0.078,0,0.141,0.054,0.141,0.119C15.704,142.16,15.641,142.214,15.563,142.214z"/>
		<path fill="#303A3A" d="M18.717,132.418l0.34-0.254c0.005-0.004,0.009-0.01,0.009-0.016v-0.305c0-0.011-0.011-0.021-0.026-0.021
			h-5.811v1.108h5.489L18.717,132.418L18.717,132.418z"/>
		<path fill="#303A3A" d="M12.487,135.587l0.162-0.093c0.007-0.004,0.011-0.011,0.011-0.018v-0.301c0-0.012-0.011-0.021-0.026-0.021
			h-1.556c-0.014,0-0.026,0.01-0.026,0.021v0.301c0,0.007,0.004,0.014,0.011,0.018l0.16,0.092l-0.143,6.7
			c-0.058,0.048-0.09,0.109-0.09,0.176c0,0.009,0.001,0.017,0.003,0.026l0.001,0.006c0.002,0.011,0.013,0.019,0.026,0.019h1.674
			c0.013,0,0.024-0.008,0.025-0.019l0.001-0.007c0.002-0.008,0.003-0.016,0.003-0.025c0-0.066-0.032-0.129-0.091-0.176
			L12.487,135.587z M12.161,142.214h-0.609c-0.078,0-0.141-0.054-0.141-0.119c0-0.066,0.063-0.119,0.141-0.119h0.609
			c0.078,0,0.141,0.054,0.141,0.119C12.301,142.16,12.239,142.214,12.161,142.214z"/>
		<path fill="#303A3A" d="M9.077,135.587l0.162-0.093c0.007-0.004,0.011-0.011,0.011-0.018v-0.301c0-0.012-0.011-0.021-0.026-0.021
			H7.669c-0.014,0-0.026,0.01-0.026,0.021v0.301c0,0.007,0.004,0.014,0.011,0.018l0.16,0.092l-0.143,6.7
			c-0.058,0.048-0.09,0.109-0.09,0.176c0,0.009,0.002,0.018,0.003,0.032c0.002,0.01,0.013,0.019,0.025,0.019h1.674
			c0.013,0,0.024-0.008,0.025-0.019l0.001-0.005c0.002-0.009,0.003-0.018,0.003-0.026c0-0.067-0.032-0.129-0.09-0.176L9.077,135.587
			z M8.758,142.214H8.15c-0.078,0-0.141-0.054-0.141-0.119c0-0.066,0.063-0.119,0.141-0.119h0.609c0.078,0,0.141,0.054,0.141,0.119
			C8.899,142.16,8.837,142.214,8.758,142.214z"/>
		<path fill="#303A3A" d="M19.854,133.159h-0.046v0.031H0.341v0.275c0,0.007,0.004,0.013,0.01,0.018l0.397,0.254v0.57h18.724v-0.57
			l0.397-0.254c0.007-0.004,0.01-0.01,0.01-0.018v-0.284C19.88,133.169,19.868,133.159,19.854,133.159z"/>
	</g>
</g>
<path fill="#303A3A" d="M11.148,200.693c0-0.525,0.426-0.951,0.951-0.951h2.124c0.525,0,0.951,0.426,0.951,0.951v1.006
	c0,0.525-0.426,0.951-0.951,0.951h-2.124c-0.525,0-0.951-0.426-0.951-0.951L11.148,200.693L11.148,200.693z M2.569,203.137h6.486
	v10.288H0.333L2.569,203.137L2.569,203.137z M1.164,213.912h4.823l0.831,3.493H0.333L1.164,213.912L1.164,213.912z M5.03,200.693
	c0-0.525,0.426-0.951,0.951-0.951h2.124c0.525,0,0.951,0.426,0.951,0.951v1.006c0,0.525-0.426,0.951-0.951,0.951H5.98
	c-0.525,0-0.951-0.426-0.951-0.951L5.03,200.693L5.03,200.693z M9.543,206.156h1.118v7.269H9.543V206.156L9.543,206.156z
	 M17.635,203.137l2.237,10.288h-8.723v-10.288H17.635L17.635,203.137z M19.04,213.912l0.831,3.493h-6.486l0.831-3.493H19.04
	L19.04,213.912z"/>
<g>
	<path fill="#303A3A" d="M11.711,175.388v-7.685c0-0.347,0.388-0.55,0.673-0.354c0.746,0.514,1.514,1.231,2.033,2.194
		c0.164,0.306,0.549,0.44,0.829,0.235c0.333-0.245,0.506-0.661,0.416-1.065c-0.725-3.283-3.133-5.676-5.236-6.788
		c-0.673-0.354-1.435,0.212-1.435,0.973v8.795c0,0.423-0.359,0.747-0.782,0.764c-0.689,0.029-1.493,0.144-2.054,0.354
		c-2.319,0.863-3.665,2.995-3.007,4.764c0.658,1.77,3.071,2.505,5.389,1.642c1.911-0.711,3.161-2.287,3.171-3.81
		C11.71,175.401,11.704,175.388,11.711,175.388L11.711,175.388z"/>
</g>
<g>
	<path fill="#010101" d="M37.712,2.628c0.726,0,1.315-0.589,1.315-1.314S38.438,0,37.712,0c-0.726,0-1.315,0.588-1.315,1.314
		C36.397,2.04,36.986,2.628,37.712,2.628z"/>
	<path fill="#010101" d="M41.551,5.471l-0.086,0.001l0.038-0.306c0.011-0.089-0.052-0.169-0.141-0.181
		c-0.089-0.011-0.17,0.051-0.181,0.141l-0.043,0.349L39.503,5.49l-1.458-1.993c-0.151-0.285-0.433-0.494-0.775-0.604
		c-0.649-0.207-1.377,0.161-1.652,0.977l-2.305,7.293c-0.008,0.009-0.018,0.016-0.025,0.026l-2.467,3.547
		c-0.147,0.212-0.016,0.558,0.294,0.774c0.309,0.216,0.68,0.218,0.827,0.007c0,0,2.641-3.704,2.669-3.788l1.016-2.13l1.792,1.711
		v4.174c0,0.279,0.312,0.504,0.698,0.504s0.699-0.226,0.699-0.504c0,0,0-3.674,0-4.404s-1.973-2.551-1.973-2.551l0.954-3.209
		l0.796,1.09c0.01,0.013,0.024,0.024,0.038,0.034c0.081,0.195,0.233,0.33,0.409,0.328l1.94-0.018l-1.114,8.972
		c-0.011,0.089,0.052,0.17,0.141,0.181s0.17-0.052,0.181-0.141l1.119-9.015l0.252-0.002c0.258-0.002,0.465-0.289,0.464-0.641
		C42.02,5.754,41.809,5.469,41.551,5.471z"/>
	<path fill="#010101" d="M32.185,7.568c0.467,0.19,1.011,0.184,1.463-0.047c0.351-0.179,0.624-0.482,0.742-0.87
		c0.28-0.923,0.559-1.845,0.838-2.767c0.11-0.386,0.064-0.792-0.133-1.143c-0.248-0.443-0.697-0.75-1.192-0.851
		C33.5,1.808,33.1,1.867,32.769,2.036c-0.35,0.179-0.637,0.496-0.743,0.879c-0.279,0.922-0.559,1.844-0.838,2.766
		C31.07,6.07,31.13,6.474,31.322,6.818C31.504,7.142,31.803,7.412,32.185,7.568z"/>
</g>
<g>
	<path fill="#010101" d="M25.972,49.544c-0.282,0,3.433-9.444,3.714-9.215c0.282,0.231,0.788,1.153,0.788,1.153
		s3.602-8.754,3.884-8.868c0.282-0.116,2.364,1.842,2.533,2.073s2.533,7.716,2.701,7.37c0.169-0.346,0.492-2.102,0.872-2.533
		c0.2-0.227,0.929,0.806,1.098,0.691c0.169-0.116,0.506-1.036,0.844-0.807s3.265,9.588,3.081,9.877
		c-0.183,0.288-3.25-7.342-3.25-7.342l-0.957-0.807l-1.801,7.948l-3.489-8.178l-1.294-5.99c0,0-4.123,9.128-4.235,8.667
		c0,0-0.718-1.757-0.999-1.297C29.18,42.748,26.253,49.544,25.972,49.544z"/>
</g>
<path fill="#010101" d="M45.989,73.408L45.989,73.408l0.001-0.78c-0.224,0.055-0.415,0.154-0.556,0.281
	c-0.211,0.135-0.343,0.32-0.347,0.524h-0.001c0,0.419-0.536,0.759-1.198,0.759c-0.169,0-0.329-0.022-0.475-0.063
	c-0.383-0.139-0.647-0.412-0.647-0.73c0-0.459-0.542-0.83-1.211-0.83c-0.504,0-0.935,0.211-1.117,0.511
	c-0.089,0.106-0.143,0.224-0.143,0.353h0.004c0,0.419-0.536,0.759-1.198,0.759c-0.319,0-0.607-0.08-0.821-0.208
	c-0.217-0.15-0.352-0.356-0.352-0.584c0-0.459-0.542-0.83-1.211-0.83c-0.655,0-1.186,0.356-1.208,0.801h-0.006
	c0,0.169-0.075,0.326-0.201,0.457c-0.215,0.204-0.581,0.339-0.997,0.339c-0.662,0-1.198-0.34-1.198-0.759
	c0-0.075-0.022-0.145-0.054-0.213c-0.118-0.373-0.602-0.653-1.182-0.653c-0.668,0-1.211,0.372-1.211,0.83h0.004
	c0,0.282-0.207,0.53-0.52,0.681c-0.183,0.072-0.397,0.115-0.627,0.115c-0.662,0-1.198-0.34-1.198-0.759
	c0-0.173-0.095-0.33-0.248-0.457c-0.211-0.244-0.595-0.41-1.038-0.41c-0.669,0-1.211,0.372-1.211,0.83
	c0,0.362-0.339,0.669-0.811,0.782v0.843c0.375-0.062,0.711-0.212,0.979-0.42c0.443-0.278,0.727-0.698,0.727-1.169h0.004
	c0-0.145,0.179-0.263,0.399-0.263c0.082,0,0.159,0.017,0.223,0.045c0.057,0.05,0.092,0.112,0.092,0.181
	c0,0.916,0.902,1.659,2.016,1.659c0.671,0,1.263-0.27,1.629-0.685c0.267-0.258,0.428-0.584,0.428-0.937
	c0-0.145,0.179-0.263,0.399-0.263c0.144,0,0.269,0.05,0.339,0.125c0.017,0.031,0.027,0.065,0.027,0.101
	c0,0.916,0.902,1.659,2.016,1.659c1.087,0,1.971-0.71,2.012-1.597h0.003c0-0.012,0.003-0.022,0.005-0.034h0.003
	c0-0.009,0.003-0.018,0.004-0.028c0.043-0.115,0.199-0.201,0.387-0.201c0.221,0,0.399,0.117,0.399,0.262
	c0,0.26,0.086,0.505,0.238,0.719c0.333,0.537,1.011,0.906,1.794,0.906c1.113,0,2.016-0.743,2.016-1.659
	c0-0.057,0.024-0.11,0.065-0.154c0.072-0.046,0.169-0.073,0.276-0.073c0.22,0,0.399,0.117,0.399,0.262
	c0,0.419,0.224,0.799,0.585,1.074c0.368,0.338,0.902,0.552,1.498,0.552C45.083,75.059,45.983,74.321,45.989,73.408 M45.989,76.019
	v-0.78c-0.224,0.054-0.415,0.153-0.556,0.281c-0.212,0.135-0.343,0.32-0.347,0.524h-0.001c0,0.419-0.536,0.759-1.198,0.759
	c-0.169,0-0.329-0.022-0.475-0.063c-0.383-0.139-0.647-0.412-0.647-0.731c0-0.459-0.542-0.83-1.211-0.83
	c-0.504,0-0.935,0.211-1.117,0.511c-0.089,0.106-0.143,0.225-0.143,0.353h0.004c0,0.419-0.536,0.759-1.198,0.759
	c-0.319,0-0.607-0.08-0.821-0.208c-0.217-0.15-0.352-0.356-0.352-0.584c0-0.459-0.542-0.83-1.211-0.83
	c-0.655,0-1.186,0.356-1.208,0.801h-0.006c0,0.169-0.075,0.325-0.201,0.457c-0.215,0.204-0.581,0.338-0.997,0.338
	c-0.662,0-1.198-0.34-1.198-0.758c0-0.075-0.022-0.145-0.053-0.213c-0.118-0.373-0.602-0.653-1.182-0.653
	c-0.668,0-1.211,0.372-1.211,0.83h0.004c0,0.282-0.207,0.53-0.52,0.681c-0.183,0.071-0.397,0.115-0.627,0.115
	c-0.662,0-1.198-0.339-1.198-0.758c0-0.173-0.095-0.33-0.248-0.457c-0.211-0.244-0.595-0.41-1.038-0.41
	c-0.669,0-1.211,0.372-1.211,0.83c0,0.362-0.339,0.669-0.811,0.782v0.844c0.375-0.062,0.711-0.212,0.979-0.42
	c0.443-0.278,0.727-0.698,0.727-1.169h0.004c0-0.145,0.179-0.263,0.399-0.263c0.082,0,0.159,0.017,0.223,0.044
	c0.057,0.05,0.092,0.112,0.092,0.182c0,0.917,0.902,1.659,2.016,1.659c0.671,0,1.263-0.27,1.629-0.685
	c0.267-0.257,0.428-0.584,0.428-0.937c0-0.145,0.179-0.263,0.399-0.263c0.144,0,0.269,0.05,0.339,0.125
	c0.017,0.031,0.027,0.065,0.027,0.101c0,0.917,0.902,1.659,2.016,1.659c1.087,0,1.971-0.709,2.012-1.596h0.003
	c0-0.012,0.003-0.023,0.005-0.034h0.003c0-0.009,0.003-0.018,0.004-0.028c0.043-0.115,0.199-0.201,0.387-0.201
	c0.221,0,0.399,0.117,0.399,0.263c0,0.26,0.086,0.505,0.238,0.718c0.333,0.537,1.011,0.907,1.794,0.907
	c1.113,0,2.016-0.743,2.016-1.659c0-0.057,0.024-0.109,0.065-0.154c0.072-0.045,0.169-0.073,0.276-0.073
	c0.221,0,0.399,0.117,0.399,0.263c0,0.419,0.224,0.798,0.585,1.074c0.369,0.337,0.902,0.552,1.498,0.552
	c1.109,0,2.009-0.738,2.015-1.65L45.989,76.019L45.989,76.019z M46.018,70.387v-0.78c-0.224,0.054-0.415,0.153-0.556,0.281
	c-0.212,0.135-0.343,0.32-0.347,0.524h-0.001c0,0.419-0.536,0.759-1.198,0.759c-0.169,0-0.329-0.022-0.475-0.063
	c-0.383-0.139-0.647-0.412-0.647-0.731c0-0.459-0.542-0.83-1.211-0.83c-0.504,0-0.935,0.211-1.117,0.511
	c-0.089,0.106-0.143,0.225-0.143,0.353h0.004c0,0.419-0.536,0.759-1.198,0.759c-0.319,0-0.607-0.08-0.821-0.208
	c-0.217-0.15-0.352-0.356-0.352-0.584c0-0.459-0.542-0.83-1.211-0.83c-0.655,0-1.186,0.356-1.208,0.801h-0.006
	c0,0.169-0.075,0.325-0.201,0.457c-0.215,0.204-0.581,0.338-0.997,0.338c-0.662,0-1.198-0.34-1.198-0.758
	c0-0.075-0.022-0.145-0.053-0.213C32.964,69.8,32.48,69.52,31.9,69.52c-0.668,0-1.211,0.372-1.211,0.83h0.004
	c0,0.282-0.207,0.53-0.52,0.681c-0.183,0.071-0.397,0.115-0.627,0.115c-0.662,0-1.198-0.339-1.198-0.758
	c0-0.173-0.095-0.33-0.248-0.457c-0.211-0.244-0.595-0.41-1.038-0.41c-0.669,0-1.211,0.372-1.211,0.83
	c0,0.362-0.339,0.669-0.811,0.782v0.844c0.375-0.062,0.711-0.212,0.979-0.42c0.443-0.278,0.727-0.698,0.727-1.169h0.004
	c0-0.145,0.179-0.263,0.399-0.263c0.082,0,0.159,0.017,0.223,0.044c0.057,0.05,0.092,0.112,0.092,0.182
	c0,0.917,0.902,1.659,2.016,1.659c0.671,0,1.263-0.27,1.629-0.685c0.267-0.257,0.428-0.584,0.428-0.937
	c0-0.145,0.179-0.263,0.399-0.263c0.144,0,0.269,0.05,0.339,0.125c0.017,0.031,0.027,0.065,0.027,0.101
	c0,0.917,0.902,1.659,2.016,1.659c1.087,0,1.971-0.709,2.012-1.596h0.003c0-0.012,0.003-0.023,0.005-0.034h0.003
	c0-0.009,0.003-0.018,0.004-0.028c0.043-0.115,0.199-0.201,0.387-0.201c0.221,0,0.399,0.117,0.399,0.263
	c0,0.26,0.086,0.505,0.238,0.718c0.333,0.537,1.011,0.907,1.794,0.907c1.113,0,2.016-0.743,2.016-1.659
	c0-0.057,0.024-0.109,0.065-0.154c0.072-0.045,0.169-0.073,0.276-0.073c0.221,0,0.399,0.117,0.399,0.263
	c0,0.419,0.224,0.798,0.585,1.074c0.369,0.337,0.902,0.552,1.498,0.552c1.109,0,2.009-0.738,2.015-1.65L46.018,70.387L46.018,70.387
	z"/>
<g>
	<g>
		<path fill="#010101" d="M30.677,135.587l0.163-0.093c0.007-0.004,0.011-0.011,0.011-0.018v-0.301c0-0.012-0.011-0.021-0.026-0.021
			H29.27c-0.014,0-0.026,0.01-0.026,0.021v0.301c0,0.007,0.004,0.014,0.011,0.018l0.16,0.092l-0.144,6.7
			c-0.058,0.048-0.09,0.109-0.09,0.176c0,0.009,0.001,0.017,0.003,0.026l0.001,0.006c0.002,0.011,0.013,0.019,0.026,0.019h1.674
			c0.013,0,0.024-0.008,0.026-0.019l0.001-0.007c0.002-0.008,0.003-0.016,0.003-0.025c0-0.066-0.032-0.129-0.09-0.176
			L30.677,135.587z M30.368,142.214h-0.609c-0.078,0-0.141-0.054-0.141-0.119c0-0.066,0.063-0.119,0.141-0.119h0.609
			c0.078,0,0.141,0.054,0.141,0.119C30.508,142.16,30.445,142.214,30.368,142.214z"/>
		<path fill="#010101" d="M27.267,135.587l0.162-0.093c0.007-0.004,0.011-0.011,0.011-0.018v-0.301c0-0.012-0.011-0.021-0.026-0.021
			h-1.555c-0.014,0-0.026,0.01-0.026,0.021v0.301c0,0.007,0.004,0.014,0.011,0.018l0.16,0.092l-0.144,6.699
			c-0.058,0.048-0.09,0.11-0.09,0.176c0,0.008,0.001,0.016,0.002,0.024l0.001,0.007c0.002,0.011,0.013,0.019,0.026,0.019h1.674
			c0.013,0,0.024-0.008,0.025-0.019l0.001-0.007c0.002-0.008,0.003-0.016,0.003-0.025c0-0.067-0.032-0.129-0.09-0.176
			L27.267,135.587z M26.965,142.214h-0.609c-0.078,0-0.141-0.054-0.141-0.119c0-0.066,0.063-0.119,0.141-0.119h0.609
			c0.078,0,0.141,0.054,0.141,0.119S27.043,142.214,26.965,142.214z"/>
		<path fill="#010101" d="M25.604,134.928c0,0.011,0.011,0.021,0.026,0.021h18.984c0.014,0,0.026-0.01,0.026-0.021v-0.361H25.604
			V134.928z"/>
		<path fill="#010101" d="M44.319,135.587l0.162-0.093c0.007-0.004,0.011-0.011,0.011-0.018v-0.301c0-0.012-0.011-0.021-0.026-0.021
			H42.91c-0.014,0-0.026,0.01-0.026,0.021v0.301c0,0.007,0.004,0.014,0.011,0.018l0.16,0.092l-0.142,6.7
			c-0.058,0.048-0.09,0.109-0.09,0.176c0,0.009,0.002,0.018,0.004,0.032c0.002,0.01,0.013,0.019,0.025,0.019h1.674
			c0.013,0,0.024-0.008,0.026-0.019c0.002-0.011,0.004-0.021,0.004-0.032c0-0.067-0.032-0.129-0.09-0.176L44.319,135.587z
			 M43.977,142.214h-0.609c-0.078,0-0.141-0.054-0.141-0.119c0-0.066,0.063-0.119,0.141-0.119h0.609
			c0.078,0,0.141,0.054,0.141,0.119S44.054,142.214,43.977,142.214z"/>
		<path fill="#010101" d="M32.316,131.556v1.374h5.616v-1.108h-0.005v-0.261h0.005v-0.008h0.252
			c0.004-0.004,0.007-0.008,0.007-0.014v-0.285c0-0.012-0.011-0.021-0.026-0.021h-1.312c-0.02-0.024-0.044-0.054-0.049-0.078
			c-0.007-0.033-0.012-0.043-0.017-0.052c-0.002-0.004-0.004-0.008-0.007-0.028c-0.007-0.044,0.006-0.091,0.019-0.139l0.002-0.006
			c0.011-0.04,0.01-0.056,0.009-0.081c-0.001-0.009-0.001-0.02-0.001-0.035c0-0.038,0-0.138,0.021-0.158
			c0.001-0.001,0.009-0.008,0.06-0.008c0.028,0,0.06,0.002,0.086,0.004c0.012,0.001,0.024,0.002,0.033,0.002l0.018,0.001
			c0.034,0.002,0.034,0.002,0.058,0.018c0.03,0.021,0.053,0.053,0.066,0.073c0.009,0.016,0.014,0.118-0.008,0.166
			c-0.011,0.024-0.02,0.036-0.027,0.046c-0.009,0.013-0.017,0.025-0.026,0.049c-0.015,0.046-0.005,0.081,0.031,0.112
			c0.01,0.008,0.023,0.018,0.04,0.018c0.015,0,0.026-0.007,0.035-0.013c0.004-0.003,0.01-0.007,0.018-0.01
			c0.042-0.02,0.044-0.046,0.048-0.084c0.001-0.011,0.002-0.03,0.003-0.052c0.003-0.046,0.007-0.115,0.013-0.138
			c0.005-0.016,0.036-0.175-0.005-0.218c-0.011-0.012-0.026-0.022-0.04-0.032c-0.023-0.016-0.045-0.031-0.056-0.055
			c-0.006-0.014,0.008-0.059,0.019-0.095c0.02-0.066,0.042-0.14,0.02-0.194c-0.02-0.05-0.043-0.093-0.06-0.124
			c-0.01-0.02-0.019-0.036-0.022-0.044c-0.001-0.002-0.001-0.004-0.001-0.005c0.001,0.001,0.002,0.001,0.003,0.002l0.015,0.009
			c0.031,0.019,0.04,0.028,0.101,0.018c0.044-0.007,0.052-0.025,0.057-0.044c0.002-0.008,0.004-0.014,0.012-0.021
			c0.034-0.032,0.023-0.072,0.013-0.11c-0.003-0.008-0.005-0.017-0.007-0.026c-0.005-0.024,0.003-0.061,0.01-0.094
			c0.006-0.026,0.011-0.049,0.011-0.069c0-0.033-0.005-0.078-0.013-0.113c0.03-0.022,0.042-0.053,0.033-0.084
			c-0.005-0.021-0.023-0.033-0.046-0.033c-0.02,0-0.043,0.01-0.061,0.02c-0.005-0.002-0.011-0.004-0.018-0.006
			c-0.011-0.035-0.054-0.043-0.11-0.009c-0.098,0.007-0.155,0.066-0.192,0.104l-0.01,0.011c-0.024,0.024-0.063,0.125-0.116,0.264
			c-0.02,0.051-0.042,0.109-0.049,0.122c-0.007,0.006-0.01,0.014-0.013,0.024c-0.009,0.023-0.019,0.052-0.08,0.057
			c-0.275,0.024-0.312,0.052-0.349,0.096c-0.003,0.004-0.007,0.008-0.01,0.011c-0.057,0.062-0.045,0.23-0.028,0.275
			c0.01,0.024,0.032,0.065,0.055,0.109c0.025,0.046,0.054,0.099,0.059,0.118c0.005,0.019-0.019,0.122-0.032,0.185
			c-0.012,0.053-0.022,0.098-0.024,0.119c-0.004,0.057,0.051,0.114,0.116,0.177c0.016,0.015,0.028,0.033,0.038,0.051H36.15
			l-0.036-1.096c-0.001-0.011-0.011-0.021-0.025-0.021l-0.116-0.003c-0.051-0.085-0.087-0.169-0.078-0.187
			c0.005-0.011,0.011-0.021,0.017-0.031c0.017-0.028,0.034-0.056,0.026-0.104c-0.002-0.01-0.004-0.02-0.006-0.03
			c-0.009-0.038-0.017-0.083-0.002-0.099c0.028-0.029,0.012-0.106-0.004-0.148c-0.014-0.035-0.039-0.079-0.082-0.089
			c-0.045-0.01-0.091-0.009-0.133,0.004c-0.007-0.038-0.012-0.127-0.016-0.2c-0.011-0.186-0.019-0.276-0.038-0.301l-0.014-0.017
			c-0.032-0.04-0.067-0.087-0.119-0.105c-0.01-0.004-0.021-0.005-0.032-0.005c-0.057,0-0.1,0.051-0.1,0.096l0.001,0.015
			c0.001,0.048-0.001,0.089-0.038,0.098c-0.044,0.011-0.092-0.032-0.095-0.068c-0.002-0.024,0.019-0.056,0.038-0.084
			c0.012-0.018,0.023-0.034,0.03-0.05l0.004-0.01c0.012-0.027,0.027-0.061,0.007-0.089c-0.013-0.018-0.037-0.028-0.074-0.032
			c-0.03-0.003-0.061-0.004-0.091-0.004c-0.063,0-0.11,0.007-0.141,0.021v-0.264c0.156-0.024,0.272-0.139,0.272-0.276
			c0-0.122-0.095-0.231-0.231-0.267l-0.001-0.005c0.005-0.011,0.008-0.021,0.009-0.029c0.008-0.003,0.027-0.006,0.041-0.009
			c0.055-0.01,0.129-0.023,0.143-0.08c0.004-0.019,0.043-0.051,0.079-0.083c0.082-0.071,0.195-0.167,0.162-0.278
			c-0.004-0.014-0.017-0.023-0.034-0.023c-0.022,0-0.049,0.015-0.082,0.036c-0.007,0.004-0.011,0.007-0.015,0.009
			c-0.003,0.001-0.011,0.005-0.022,0.009c-0.113,0.045-0.232,0.098-0.264,0.149c-0.008,0.013-0.011,0.026-0.015,0.037
			c-0.007,0.021-0.01,0.029-0.024,0.032c-0.001-0.017-0.003-0.032-0.007-0.045c0.001-0.004,0.002-0.009,0.004-0.013
			c0.007-0.027,0.018-0.065-0.007-0.091c-0.014-0.015-0.036-0.022-0.066-0.022c-0.027,0-0.049,0.007-0.062,0.021
			c-0.024,0.023-0.016,0.057-0.011,0.084c0.002,0.009,0.004,0.018,0.005,0.02c-0.003,0.012-0.007,0.026-0.008,0.042
			c-0.016-0.004-0.019-0.011-0.026-0.032c-0.003-0.011-0.007-0.024-0.015-0.038c-0.032-0.051-0.158-0.107-0.265-0.149
			c-0.011-0.004-0.018-0.008-0.021-0.009c-0.003-0.002-0.008-0.005-0.014-0.008c-0.033-0.021-0.061-0.036-0.083-0.036
			c-0.017,0-0.031,0.009-0.034,0.022c-0.033,0.111,0.079,0.208,0.161,0.278c0.037,0.032,0.075,0.065,0.08,0.083
			c0.014,0.056,0.088,0.069,0.143,0.079c0.014,0.003,0.032,0.006,0.04,0.009c0.002,0.009,0.005,0.019,0.01,0.032l-0.001,0.007
			c-0.138,0.036-0.232,0.144-0.232,0.267c0,0.137,0.115,0.252,0.272,0.276v0.337c-0.009,0.005-0.017,0.011-0.024,0.016
			c-0.018,0.015-0.033,0.027-0.045,0.036c-0.011-0.017-0.036-0.039-0.078-0.03l-0.016,0.003c-0.053,0.01-0.118,0.024-0.13,0.091
			c-0.012,0.068-0.038,0.35,0.015,0.49c0.043,0.115,0.047,0.316,0.047,0.387c-0.009,0.007-0.029,0.019-0.047,0.031
			c-0.062,0.039-0.152,0.094-0.197,0.154c-0.001-0.034,0.001-0.073,0.001-0.091c0.001-0.013,0.001-0.023,0.001-0.028
			c0-0.009,0.006-0.026,0.013-0.044c0.015-0.04,0.033-0.09,0.018-0.138l-0.006-0.019c-0.016-0.051-0.023-0.074-0.079-0.109
			c-0.01-0.006-0.038-0.015-0.07-0.015c-0.034,0-0.065,0.01-0.09,0.028c-0.058,0.042-0.067,0.095-0.074,0.136
			c-0.003,0.017-0.004,0.049-0.004,0.085c-0.001,0.034-0.002,0.094-0.007,0.104c-0.007,0.01-0.01,0.028-0.018,0.096
			c-0.008,0.059-0.022,0.18-0.043,0.197c-0.039,0.03-0.145,0.146-0.126,0.276c0.015,0.099,0.055,0.211,0.077,0.27
			c0.004,0.012,0.008,0.022,0.01,0.028c0.006,0.018,0.008,0.054,0.011,0.089c0.003,0.044,0.006,0.089,0.016,0.119
			c0.015,0.047,0.032,0.171,0.039,0.231l0.002,0.014c0.003,0.023,0.005,0.042,0.008,0.06h-0.466c0.01-0.018,0.022-0.036,0.037-0.051
			c0.066-0.063,0.121-0.12,0.117-0.177c-0.002-0.021-0.011-0.066-0.024-0.118c-0.014-0.062-0.037-0.167-0.032-0.186
			c0.005-0.019,0.033-0.071,0.058-0.117c0.023-0.044,0.045-0.085,0.055-0.109c0.017-0.044,0.03-0.212-0.028-0.275
			c-0.003-0.004-0.007-0.008-0.01-0.011c-0.037-0.045-0.074-0.073-0.35-0.096c-0.061-0.005-0.072-0.034-0.08-0.057
			c-0.003-0.009-0.006-0.017-0.013-0.023c-0.007-0.012-0.03-0.07-0.049-0.121c-0.054-0.14-0.094-0.241-0.118-0.265l-0.01-0.01
			c-0.039-0.041-0.099-0.103-0.205-0.106l-0.014-0.001c-0.05,0-0.089,0.008-0.116,0.024c-0.046-0.021-0.08-0.009-0.089,0.023
			c-0.008,0.03,0.002,0.057,0.027,0.079c-0.007,0.034-0.011,0.073-0.011,0.101c0,0.02,0.005,0.044,0.011,0.069
			c0.008,0.033,0.015,0.069,0.01,0.094c-0.002,0.009-0.004,0.017-0.007,0.026c-0.01,0.038-0.021,0.078,0.013,0.11
			c0.009,0.008,0.01,0.014,0.012,0.021c0.005,0.019,0.014,0.037,0.057,0.044c0.017,0.003,0.029,0.004,0.039,0.004
			c0.026,0,0.041-0.009,0.063-0.022l0.015-0.009c0.001-0.001,0.002-0.002,0.003-0.002c0,0.002-0.001,0.003-0.001,0.005
			c-0.002,0.008-0.011,0.025-0.022,0.045c-0.016,0.031-0.039,0.073-0.06,0.123c-0.022,0.054,0.001,0.129,0.02,0.194
			c0.011,0.036,0.024,0.081,0.018,0.095c-0.01,0.025-0.032,0.039-0.055,0.055c-0.014,0.01-0.029,0.02-0.04,0.032
			c-0.039,0.041-0.013,0.194-0.005,0.218c0.007,0.022,0.01,0.091,0.013,0.136c0.001,0.023,0.002,0.043,0.004,0.059
			c0.003,0.033,0.005,0.06,0.047,0.079c0.007,0.003,0.012,0.007,0.017,0.01c0.01,0.006,0.02,0.013,0.036,0.013
			c0.017,0,0.031-0.009,0.04-0.018c0.036-0.031,0.046-0.067,0.03-0.112c-0.008-0.024-0.016-0.036-0.026-0.049
			c-0.007-0.01-0.016-0.023-0.027-0.046c-0.022-0.048-0.017-0.149-0.008-0.165c0.011-0.017,0.034-0.051,0.066-0.073
			c0.024-0.016,0.024-0.016,0.058-0.018l0.017-0.001c0.01-0.001,0.021-0.001,0.034-0.002c0.026-0.002,0.058-0.004,0.086-0.004
			c0.05,0,0.059,0.008,0.06,0.008c0.021,0.02,0.021,0.12,0.021,0.158c0,0.015-0.001,0.026-0.001,0.036
			c-0.001,0.024-0.002,0.04,0.008,0.08l0.002,0.006c0.013,0.049,0.025,0.095,0.019,0.139c-0.003,0.021-0.005,0.024-0.007,0.028
			c-0.005,0.009-0.01,0.019-0.017,0.052c-0.005,0.025-0.029,0.054-0.049,0.078h-1.21c-0.014,0-0.026,0.01-0.026,0.021v0.285
			c0,0.008,0.006,0.014,0.014,0.018L32.316,131.556L32.316,131.556z M35.96,130.85C35.961,130.85,35.961,130.85,35.96,130.85
			c0.004,0.005,0.005,0.02,0.006,0.027c0.001,0.009,0.002,0.018,0.003,0.024c0.004,0.017,0.014,0.192,0.021,0.332h-0.02
			C35.952,131.06,35.942,130.881,35.96,130.85z M35.623,131.006c0.01-0.013,0.013-0.035,0.018-0.07
			c0.002-0.014,0.005-0.034,0.009-0.051c0.007,0.021,0.017,0.061,0.026,0.138c0.004,0.034-0.009,0.133-0.02,0.209h-0.038
			C35.616,131.125,35.617,131.022,35.623,131.006z M34.732,130.868c0.019,0.001,0.046,0.002,0.075,0.004
			c0.047,0.003,0.095,0.005,0.12,0.004c0.026-0.002,0.108-0.001,0.185,0c0.079,0.001,0.154,0.001,0.171,0
			c0.019-0.002,0.067-0.005,0.106-0.008c-0.025,0.033-0.046,0.076-0.021,0.102c0.024,0.025,0.053,0.052,0.106,0.053
			c0.007,0.032-0.011,0.14-0.019,0.188c-0.002,0.009-0.002,0.015-0.004,0.022H34.72c0.005-0.087,0.015-0.248,0.017-0.28
			C34.739,130.922,34.735,130.889,34.732,130.868z M34.321,131.027c0.007-0.022,0.005-0.058,0.004-0.096
			c-0.001-0.024-0.002-0.06,0.001-0.083c0.002,0.009,0.033,0.011,0.034,0.026c0.001,0.009,0.004,0.062,0.005,0.079
			c0.004,0.061-0.001,0.112,0.011,0.141c0.005,0.013-0.002,0.074,0.037,0.086l0.011,0.003c0.033,0.01,0.084,0.02,0.083-0.015
			c-0.001-0.05,0.007-0.153-0.011-0.194c-0.016-0.036,0.011-0.121,0.011-0.143c0.008-0.001,0.032,0,0.047,0.002
			c0.007,0.064,0.03,0.296,0.015,0.364l-0.008,0.037h-0.235C34.32,131.149,34.314,131.053,34.321,131.027z"/>
		<path fill="#010101" d="M26.515,132.418v0.512h5.495v-1.108h-5.817c-0.014,0-0.026,0.01-0.026,0.021v0.305
			c0,0.006,0.003,0.012,0.009,0.016L26.515,132.418z"/>
		<path fill="#010101" d="M40.909,135.587l0.162-0.093c0.007-0.004,0.011-0.011,0.011-0.018v-0.301c0-0.012-0.011-0.021-0.026-0.021
			h-1.555c-0.014,0-0.026,0.01-0.026,0.021v0.301c0,0.007,0.004,0.014,0.011,0.018l0.16,0.092l-0.144,6.699
			c-0.058,0.048-0.09,0.11-0.09,0.176c0,0.009,0.001,0.016,0.002,0.025l0.001,0.007c0.002,0.011,0.013,0.019,0.025,0.019h1.674
			c0.013,0,0.025-0.013,0.026-0.024c0.002-0.009,0.003-0.018,0.003-0.027c0-0.066-0.032-0.129-0.09-0.176L40.909,135.587z
			 M40.574,142.214h-0.609c-0.078,0-0.141-0.054-0.141-0.119c0-0.066,0.063-0.119,0.141-0.119h0.609
			c0.078,0,0.141,0.054,0.141,0.119S40.652,142.214,40.574,142.214z"/>
		<path fill="#010101" d="M43.728,132.418l0.34-0.254c0.005-0.004,0.009-0.01,0.009-0.016v-0.305c0-0.011-0.011-0.021-0.026-0.021
			H38.24v1.108h5.489L43.728,132.418L43.728,132.418z"/>
		<path fill="#010101" d="M37.498,135.587l0.162-0.093c0.007-0.004,0.011-0.011,0.011-0.018v-0.301c0-0.012-0.011-0.021-0.026-0.021
			H36.09c-0.014,0-0.026,0.01-0.026,0.021v0.301c0,0.007,0.004,0.014,0.011,0.018l0.16,0.092l-0.143,6.7
			c-0.058,0.048-0.09,0.109-0.09,0.176c0,0.009,0.001,0.017,0.003,0.026l0.001,0.006c0.002,0.011,0.013,0.019,0.026,0.019h1.674
			c0.013,0,0.024-0.008,0.025-0.019l0.001-0.007c0.002-0.008,0.003-0.016,0.003-0.025c0-0.066-0.032-0.129-0.091-0.176
			L37.498,135.587z M37.172,142.214h-0.609c-0.078,0-0.141-0.054-0.141-0.119c0-0.066,0.063-0.119,0.141-0.119h0.609
			c0.078,0,0.141,0.054,0.141,0.119S37.25,142.214,37.172,142.214z"/>
		<path fill="#010101" d="M34.088,135.587l0.162-0.093c0.007-0.004,0.011-0.011,0.011-0.018v-0.301c0-0.012-0.011-0.021-0.026-0.021
			H32.68c-0.014,0-0.026,0.01-0.026,0.021v0.301c0,0.007,0.004,0.014,0.011,0.018l0.16,0.092l-0.143,6.7
			c-0.058,0.048-0.09,0.109-0.09,0.176c0,0.009,0.002,0.018,0.003,0.032c0.002,0.01,0.013,0.019,0.025,0.019h1.674
			c0.013,0,0.024-0.008,0.025-0.019l0.001-0.005c0.002-0.009,0.003-0.018,0.003-0.026c0-0.067-0.032-0.129-0.09-0.176
			L34.088,135.587z M33.77,142.214h-0.609c-0.078,0-0.141-0.054-0.141-0.119c0-0.066,0.063-0.119,0.141-0.119h0.609
			c0.078,0,0.141,0.054,0.141,0.119S33.848,142.214,33.77,142.214z"/>
		<path fill="#010101" d="M44.865,133.159h-0.046v0.031H25.352v0.275c0,0.007,0.004,0.013,0.01,0.018l0.397,0.254v0.57h18.724v-0.57
			l0.397-0.254c0.007-0.004,0.01-0.01,0.01-0.018v-0.284C44.891,133.169,44.88,133.159,44.865,133.159z"/>
	</g>
</g>
<path fill="#010101" d="M36.16,200.693c0-0.525,0.426-0.951,0.951-0.951h2.124c0.525,0,0.951,0.426,0.951,0.951v1.006
	c0,0.525-0.426,0.951-0.951,0.951h-2.124c-0.525,0-0.951-0.426-0.951-0.951V200.693L36.16,200.693z M27.581,203.137h6.486v10.288
	h-8.723L27.581,203.137L27.581,203.137z M26.175,213.912h4.823l0.831,3.493h-6.486L26.175,213.912L26.175,213.912z M30.041,200.693
	c0-0.525,0.426-0.951,0.951-0.951h2.124c0.525,0,0.951,0.426,0.951,0.951v1.006c0,0.525-0.426,0.951-0.951,0.951h-2.124
	c-0.525,0-0.951-0.426-0.951-0.951V200.693L30.041,200.693z M34.554,206.156h1.118v7.269h-1.118V206.156L34.554,206.156z
	 M42.646,203.137l2.237,10.288H36.16v-10.288H42.646L42.646,203.137z M44.051,213.912l0.831,3.493h-6.486l0.831-3.493H44.051
	L44.051,213.912z"/>
<g>
	<path fill="#010101" d="M36.723,175.388v-7.685c0-0.347,0.388-0.55,0.673-0.354c0.746,0.514,1.514,1.231,2.033,2.194
		c0.164,0.306,0.549,0.44,0.829,0.235c0.333-0.245,0.506-0.661,0.416-1.065c-0.725-3.283-3.133-5.676-5.236-6.788
		c-0.674-0.354-1.435,0.212-1.435,0.973v8.795c0,0.423-0.359,0.747-0.782,0.764c-0.689,0.029-1.493,0.144-2.054,0.354
		c-2.319,0.863-3.665,2.995-3.007,4.764c0.658,1.77,3.071,2.505,5.389,1.642c1.911-0.711,3.161-2.287,3.171-3.81
		C36.721,175.401,36.716,175.388,36.723,175.388L36.723,175.388z"/>
</g>
<g id="Livello_25">
	<path fill="#303A3A" d="M18.049,250.85c0,0.669-0.539,1.212-1.203,1.212s-1.203-0.543-1.203-1.212c0-0.67,0.539-1.213,1.203-1.213
		C17.51,249.637,18.049,250.18,18.049,250.85 M17.104,247.875h-14.6l2.391-5.128h0.013c0.106-0.265,0.373-0.453,0.685-0.453
		c0.006,0,0.012,0.001,0.018,0.001v-0.001h8.387v0.001c0.006,0,0.012-0.001,0.018-0.001c0.313,0,0.58,0.188,0.686,0.453h0.012
		L17.104,247.875z M2.876,249.637c0.664,0,1.203,0.543,1.203,1.213c0,0.669-0.538,1.212-1.203,1.212
		c-0.664,0-1.203-0.543-1.203-1.212C1.673,250.18,2.212,249.637,2.876,249.637 M19.691,252.463L19.691,252.463l0.001-3.227h-0.001
		c0-0.007,0.001-0.013,0.001-0.02c0-0.674-0.541-1.221-1.213-1.231v-0.001h-0.494l-2.644-5.67h-0.013
		c-0.117-0.293-0.409-0.501-0.752-0.507l0,0H5.13v0.001c-0.343,0.006-0.635,0.214-0.752,0.507H4.365l-2.644,5.67H1.245
		c-0.681,0-1.233,0.552-1.233,1.233c0,0.007,0.001,0.013,0.001,0.02l0,0v3.227h0.001c0,0.006-0.001,0.013-0.001,0.02
		c0,0.681,0.552,1.233,1.233,1.233c0.073,0,0.144-0.008,0.214-0.02h0.167v1.928c-0.006,0.048-0.01,0.096-0.01,0.146
		c0,0.669,0.564,1.212,1.259,1.212s1.259-0.543,1.259-1.212c0-0.05-0.004-0.097-0.01-0.146v-1.928h11.449v1.928
		c-0.006,0.048-0.01,0.096-0.01,0.146c0,0.669,0.564,1.213,1.259,1.213c0.695,0,1.259-0.543,1.259-1.213
		c0-0.05-0.004-0.097-0.01-0.146v-1.928h0.172c0.07,0.013,0.141,0.02,0.214,0.02c0.681,0,1.232-0.552,1.232-1.233
		C19.692,252.476,19.691,252.47,19.691,252.463"/>
</g>
<g id="Livello_1_1_">
</g>
<path fill="#303A3A" d="M18.567,288.123c1.533,1.533,1.533,4.048,0,5.581s-4.048,1.533-5.581,0s-1.533-4.048,0-5.581
	c0.147-0.147,0.305-0.282,0.473-0.404l-0.201-0.464l-2.992,3.933l0.269-1.476l2.413-3.172l-0.007-0.016l-2.031,0.092
	c-0.088-0.21-0.237-0.394-0.437-0.524l-0.197-0.128l3.106-0.136l1.194,2.755c0.152,0.351,0.345,0.785,0.585,1.178
	c0.222,0.365,0.483,0.689,0.782,0.855c0.164,0.091,0.223,0.298,0.132,0.463c-0.091,0.164-0.298,0.223-0.463,0.132
	c-0.418-0.232-0.757-0.643-1.033-1.095c-0.259-0.424-0.464-0.888-0.628-1.264l-0.17-0.391c-0.084,0.068-0.164,0.141-0.24,0.217
	c-1.228,1.228-1.228,3.243,0,4.471s3.243,1.228,4.471,0s1.228-3.243,0-4.471c-0.856-0.856-2.135-1.148-3.274-0.751l-0.319-0.72
	C15.854,286.681,17.481,287.037,18.567,288.123L18.567,288.123z M8.161,289.829l-1.157-2.683l-0.515,0.738
	c0.89,0.744,1.4,1.827,1.417,2.972c0.006,0.431-0.072,0.927-0.21,1.334c-0.539,1.582-2.035,2.67-3.736,2.67
	c-2.179,0-3.946-1.767-3.946-3.946c0-1.09,0.442-2.076,1.156-2.79c1.164-1.164,2.94-1.482,4.431-0.8l-0.46,0.657
	c-1.17-0.471-2.521-0.197-3.416,0.698c-0.572,0.572-0.926,1.362-0.926,2.235c0,1.746,1.415,3.161,3.161,3.161
	c1.425,0,2.673-0.953,3.049-2.322l-3.102-0.503c-0.185-0.03-0.312-0.204-0.283-0.389c0.009-0.058,0.033-0.11,0.066-0.154
	l2.998-4.295l-0.013-0.031l1.033,0.673l0.674,1.564L8.161,289.829L8.161,289.829z M7.116,291.081
	c0.051-0.974-0.344-1.908-1.079-2.55l-1.489,2.134L7.116,291.081L7.116,291.081z M12.934,279.239c0.811,0,1.468,0.657,1.468,1.468
	c0,0.811-0.657,1.468-1.468,1.468c-0.811,0-1.468-0.657-1.468-1.468C11.466,279.896,12.124,279.239,12.934,279.239L12.934,279.239z
	 M5.954,283.187c-0.666,0.458-0.846,1.806-0.155,2.256l3.105,2.024l-0.693,3.803c-0.083,0.462,0.225,0.904,0.687,0.987
	s0.904-0.225,0.987-0.687l0.787-4.32c0.076-0.338-0.059-0.702-0.366-0.902l-2.434-1.586c0.675-0.455,1.568-1.038,2.352-1.474
	c0.165-0.103,0.254-0.018,0.283,0.096l0.409,1.639c0.08,0.325,0.381,0.538,0.703,0.517l2.843-0.112c0.376,0,0.68-0.305,0.68-0.68
	c0-0.376-0.304-0.68-0.68-0.68l-2.353,0.11l-0.604-2.424c-0.015-0.127-0.05-0.253-0.108-0.374c-0.284-0.595-0.996-0.848-1.591-0.565
	C8.556,281.412,6.811,282.597,5.954,283.187z"/>
<g id="Livello_25_1_">
	<path fill="#010101" d="M43.31,250.85c0,0.669-0.539,1.212-1.203,1.212c-0.664,0-1.203-0.543-1.203-1.212
		c0-0.67,0.539-1.213,1.203-1.213S43.31,250.18,43.31,250.85 M42.365,247.875h-14.6l2.391-5.128h0.013
		c0.106-0.265,0.373-0.453,0.685-0.453c0.006,0,0.012,0.001,0.018,0.001v-0.001h8.387v0.001c0.006,0,0.012-0.001,0.018-0.001
		c0.313,0,0.58,0.188,0.686,0.453h0.012L42.365,247.875z M28.137,249.637c0.664,0,1.203,0.543,1.203,1.213
		c0,0.669-0.538,1.212-1.203,1.212c-0.664,0-1.203-0.543-1.203-1.212C26.934,250.18,27.472,249.637,28.137,249.637 M44.952,252.463
		L44.952,252.463l0.001-3.227h-0.001c0-0.007,0.001-0.013,0.001-0.02c0-0.674-0.541-1.221-1.213-1.231v-0.001h-0.494l-2.644-5.67
		h-0.013c-0.117-0.293-0.409-0.501-0.752-0.507l0,0h-9.444v0.001c-0.343,0.006-0.635,0.214-0.752,0.507h-0.014l-2.644,5.67h-0.475
		c-0.681,0-1.233,0.552-1.233,1.233c0,0.007,0.001,0.013,0.001,0.02h-0.001v3.227h0.001c0,0.006-0.001,0.013-0.001,0.02
		c0,0.681,0.552,1.233,1.233,1.233c0.073,0,0.144-0.008,0.214-0.02h0.167v1.928c-0.006,0.048-0.01,0.096-0.01,0.146
		c0,0.669,0.564,1.212,1.259,1.212c0.695,0,1.259-0.543,1.259-1.212c0-0.05-0.004-0.097-0.01-0.146v-1.928h11.449v1.928
		c-0.006,0.048-0.01,0.096-0.01,0.146c0,0.669,0.564,1.213,1.259,1.213s1.259-0.543,1.259-1.213c0-0.05-0.004-0.097-0.01-0.146
		v-1.928h0.172c0.07,0.013,0.141,0.02,0.214,0.02c0.681,0,1.232-0.552,1.232-1.233C44.953,252.476,44.952,252.47,44.952,252.463"/>
</g>
<path d="M43.815,288.123c1.533,1.533,1.533,4.048,0,5.581s-4.048,1.533-5.581,0s-1.533-4.048,0-5.581
	c0.147-0.147,0.305-0.282,0.473-0.404l-0.201-0.464l-2.992,3.933l0.269-1.476l2.413-3.172l-0.007-0.016l-2.031,0.092
	c-0.088-0.21-0.237-0.394-0.437-0.524l-0.197-0.128l3.106-0.136l1.194,2.755c0.152,0.351,0.345,0.785,0.585,1.178
	c0.222,0.365,0.483,0.689,0.782,0.855c0.164,0.091,0.223,0.298,0.132,0.463c-0.091,0.164-0.298,0.223-0.463,0.132
	c-0.418-0.232-0.757-0.643-1.033-1.095c-0.259-0.424-0.464-0.888-0.628-1.264l-0.17-0.391c-0.084,0.068-0.164,0.141-0.24,0.217
	c-1.228,1.228-1.228,3.243,0,4.471s3.243,1.228,4.471,0s1.228-3.243,0-4.471c-0.856-0.856-2.135-1.148-3.274-0.751l-0.319-0.72
	C41.103,286.681,42.73,287.037,43.815,288.123L43.815,288.123z M33.41,289.829l-1.157-2.683l-0.515,0.738
	c0.89,0.744,1.4,1.827,1.417,2.972c0.006,0.431-0.072,0.927-0.21,1.334c-0.539,1.582-2.035,2.67-3.736,2.67
	c-2.179,0-3.946-1.767-3.946-3.946c0-1.09,0.442-2.076,1.156-2.79c1.164-1.164,2.94-1.482,4.431-0.8l-0.46,0.657
	c-1.17-0.471-2.521-0.197-3.416,0.698c-0.572,0.572-0.926,1.362-0.926,2.235c0,1.746,1.415,3.161,3.161,3.161
	c1.425,0,2.673-0.953,3.049-2.322l-3.102-0.503c-0.185-0.03-0.312-0.204-0.283-0.389c0.009-0.058,0.033-0.11,0.066-0.154
	l2.998-4.295l-0.013-0.031l1.033,0.673l0.674,1.564L33.41,289.829L33.41,289.829z M32.365,291.081
	c0.051-0.974-0.344-1.908-1.079-2.55l-1.489,2.134L32.365,291.081L32.365,291.081z M38.183,279.239c0.811,0,1.468,0.657,1.468,1.468
	c0,0.811-0.657,1.468-1.468,1.468c-0.811,0-1.468-0.657-1.468-1.468C36.715,279.896,37.372,279.239,38.183,279.239L38.183,279.239z
	 M31.203,283.187c-0.666,0.458-0.846,1.806-0.155,2.256l3.105,2.024l-0.693,3.803c-0.083,0.462,0.225,0.904,0.687,0.987
	s0.904-0.225,0.987-0.687l0.787-4.32c0.076-0.338-0.059-0.702-0.366-0.902l-2.434-1.586c0.675-0.455,1.568-1.038,2.352-1.474
	c0.165-0.103,0.254-0.018,0.283,0.096l0.409,1.639c0.08,0.325,0.381,0.538,0.703,0.517l2.843-0.112c0.376,0,0.68-0.305,0.68-0.68
	c0-0.376-0.304-0.68-0.68-0.68l-2.353,0.11l-0.604-2.424c-0.015-0.127-0.05-0.253-0.108-0.374c-0.284-0.595-0.996-0.848-1.591-0.565
	C33.805,281.412,32.06,282.597,31.203,283.187z"/>
<g id="Livello_21">
	<path fill="#303A3A" d="M13.687,325.661h-3.442v-0.012H9.557v0.012H6.116v-3.442h2.941v-0.004h2.505v0.004h2.125V325.661
		L13.687,325.661z M11.622,321.187c0,0.195-0.154,0.353-0.344,0.353H8.525l0,0c-0.002,0-0.003,0-0.005,0
		c-0.193,0-0.349-0.156-0.349-0.349s0.156-0.349,0.349-0.349c0.002,0,0.003,0,0.005,0v-0.01h2.753
		C11.468,320.833,11.622,320.991,11.622,321.187 M10.623,320.154h-1.41v-1.403h1.41V320.154L10.623,320.154z M8.852,328.027
		c0-0.598,0.47-1.082,1.049-1.082s1.049,0.485,1.049,1.082s-0.47,1.082-1.049,1.082C9.322,329.109,8.852,328.624,8.852,328.027
		 M14.375,330.135v-8.948c0-0.57-0.462-1.033-1.032-1.033l0,0h-2.065v-1.403h1.36v-0.646H7.165v0.646h1.393v1.403H6.46l0,0
		c-0.57,0-1.032,0.462-1.032,1.033v8.948c0,0.57,0.462,1.033,1.032,1.033h0.679l-2.274,3.939H5.61l2.274-3.939h3.936l2.274,3.939
		h0.746l-2.274-3.939h0.777C13.913,331.167,14.375,330.705,14.375,330.135"/>
</g>
<g id="Livello_1_2_">
</g>
<g id="Livello_21_1_">
	<path fill="#010101" d="M38.948,325.661h-3.442v-0.012h-0.688v0.012h-3.442v-3.442h2.941v-0.004h2.505v0.004h2.125L38.948,325.661
		L38.948,325.661z M36.883,321.187c0,0.195-0.154,0.353-0.344,0.353h-2.753l0,0c-0.002,0-0.003,0-0.005,0
		c-0.193,0-0.349-0.156-0.349-0.349s0.156-0.349,0.349-0.349c0.002,0,0.003,0,0.005,0v-0.01h2.753
		C36.729,320.833,36.883,320.991,36.883,321.187 M35.884,320.154h-1.41v-1.403h1.41V320.154L35.884,320.154z M34.113,328.027
		c0-0.598,0.47-1.082,1.049-1.082s1.049,0.485,1.049,1.082s-0.47,1.082-1.049,1.082S34.113,328.624,34.113,328.027 M39.636,330.135
		v-8.948c0-0.57-0.462-1.033-1.032-1.033l0,0h-2.065v-1.403h1.36v-0.646h-5.473v0.646h1.393v1.403h-2.098l0,0
		c-0.57,0-1.032,0.462-1.032,1.033v8.948c0,0.57,0.462,1.033,1.032,1.033H32.4l-2.274,3.939h0.745l2.274-3.939h3.936l2.274,3.939
		h0.746l-2.274-3.939h0.777C39.174,331.167,39.636,330.705,39.636,330.135"/>
</g>
<g id="Livello_20">
	<path fill="#303A3A" d="M15.2,373.372h-1.746v1.79c0,0.482,0.391,0.873,0.873,0.873s0.873-0.391,0.873-0.873V373.372L15.2,373.372z
		 M6.251,373.372H4.505v1.79c0,0.482,0.391,0.873,0.873,0.873c0.483,0,0.873-0.391,0.873-0.873L6.251,373.372L6.251,373.372z
		 M15.221,366.64c0,0.247-0.2,0.447-0.447,0.447H4.931l0,0c-0.247,0-0.447-0.2-0.447-0.447v-4.475c0-0.247,0.201-0.447,0.448-0.447
		l0,0h9.841l0,0c0.247,0,0.447,0.2,0.447,0.447L15.221,366.64L15.221,366.64z M13.432,360.376c0,0.247-0.2,0.447-0.447,0.447l0,0
		H6.71c-0.241,0-0.437-0.2-0.437-0.447s0.196-0.447,0.437-0.447h6.274C13.231,359.929,13.432,360.129,13.432,360.376 M4.505,369.772
		c0-0.471,0.391-0.852,0.873-0.852c0.483,0,0.873,0.382,0.873,0.852s-0.391,0.852-0.873,0.852S4.505,370.242,4.505,369.772
		 M8.085,369.101c0-0.23,0.183-0.417,0.411-0.425v-0.001H8.51l0,0h2.663v0.001c0.007,0,0.014-0.001,0.022-0.001
		c0.235,0,0.426,0.19,0.426,0.426c0,0.235-0.19,0.426-0.426,0.426c-0.007,0-0.014-0.001-0.022-0.001v0.001H8.496v-0.001
		C8.267,369.518,8.085,369.331,8.085,369.101 M8.085,370.443c0-0.23,0.183-0.417,0.411-0.425v-0.001h2.677v0.001
		c0.007,0,0.014-0.001,0.022-0.001c0.235,0,0.426,0.19,0.426,0.426c0,0.235-0.19,0.426-0.426,0.426
		c-0.007,0-0.014-0.001-0.022-0.001v0.001H8.496v-0.001C8.267,370.86,8.085,370.673,8.085,370.443 M13.453,369.772
		c0-0.471,0.391-0.852,0.873-0.852s0.873,0.382,0.873,0.852s-0.391,0.852-0.873,0.852S13.453,370.242,13.453,369.772
		 M16.116,359.929L16.116,359.929c0-0.494-0.401-0.895-0.895-0.895H4.484l0,0c-0.494,0-0.895,0.401-0.895,0.895v12.548
		c0,0.482,0.392,0.873,0.873,0.873c0.007,0,0.014-0.001,0.022-0.001v0.023h10.738c0.494,0,0.895-0.401,0.895-0.895v-12.548H16.116z"
		/>
</g>
<g id="Livello_1_3_">
</g>
<g id="Livello_20_1_">
	<path fill="#010101" d="M40.46,373.372h-1.746v1.79c0,0.482,0.391,0.873,0.873,0.873s0.873-0.391,0.873-0.873L40.46,373.372
		L40.46,373.372z M31.512,373.372h-1.746v1.79c0,0.482,0.391,0.873,0.873,0.873c0.483,0,0.873-0.391,0.873-0.873L31.512,373.372
		L31.512,373.372z M40.482,366.64c0,0.247-0.2,0.447-0.447,0.447h-9.843l0,0c-0.247,0-0.447-0.2-0.447-0.447v-4.475
		c0-0.247,0.201-0.447,0.448-0.447l0,0h9.841l0,0c0.247,0,0.447,0.2,0.447,0.447L40.482,366.64L40.482,366.64z M38.693,360.376
		c0,0.247-0.2,0.447-0.447,0.447l0,0h-6.274c-0.241,0-0.437-0.2-0.437-0.447s0.196-0.447,0.437-0.447h6.274
		C38.492,359.929,38.693,360.129,38.693,360.376 M29.766,369.772c0-0.471,0.391-0.852,0.873-0.852c0.483,0,0.873,0.382,0.873,0.852
		s-0.391,0.852-0.873,0.852C30.157,370.624,29.766,370.242,29.766,369.772 M33.345,369.101c0-0.23,0.183-0.417,0.411-0.425v-0.001
		h0.014l0,0h2.663v0.001c0.007,0,0.014-0.001,0.022-0.001c0.235,0,0.426,0.19,0.426,0.426c0,0.235-0.19,0.426-0.426,0.426
		c-0.007,0-0.014-0.001-0.022-0.001v0.001h-2.677v-0.001C33.528,369.518,33.345,369.331,33.345,369.101 M33.345,370.443
		c0-0.23,0.183-0.417,0.411-0.425v-0.001h2.677v0.001c0.007,0,0.014-0.001,0.022-0.001c0.235,0,0.426,0.19,0.426,0.426
		c0,0.235-0.19,0.426-0.426,0.426c-0.007,0-0.014-0.001-0.022-0.001v0.001h-2.677v-0.001
		C33.528,370.86,33.345,370.673,33.345,370.443 M38.714,369.772c0-0.471,0.391-0.852,0.873-0.852c0.482,0,0.873,0.382,0.873,0.852
		s-0.391,0.852-0.873,0.852S38.714,370.242,38.714,369.772 M41.377,359.929L41.377,359.929c0-0.494-0.401-0.895-0.895-0.895H29.744
		l0,0c-0.494,0-0.895,0.401-0.895,0.895v12.548c0,0.482,0.392,0.873,0.873,0.873c0.007,0,0.014-0.001,0.022-0.001v0.023h10.738
		c0.494,0,0.895-0.401,0.895-0.895V359.929z"/>
</g>
<g>
	<g>
		<g>
			<polygon fill="#303A3A" points="9.896,91.814 10.433,94.019 10.969,96.225 9.896,96.225 8.823,96.225 9.359,94.019 			"/>
			<polygon fill="#303A3A" points="5.643,95.504 5.918,96.655 6.193,97.805 5.643,97.805 5.093,97.805 5.368,96.655 			"/>
			<rect x="5.01" y="97.805" fill="#303A3A" width="1.266" height="0.236"/>
			<rect x="5.287" y="98.04" fill="#303A3A" width="0.711" height="0.855"/>
			<rect x="5.002" y="98.895" fill="#303A3A" width="1.282" height="0.409"/>
			<polygon fill="#303A3A" points="6.132,99.8 5.153,99.8 5.002,99.303 6.283,99.303 			"/>
			<rect x="8.619" y="96.225" fill="#303A3A" width="2.554" height="0.43"/>
			<polygon fill="#303A3A" points="10.595,97.627 9.197,97.627 8.823,96.655 10.969,96.655 			"/>
			<polygon fill="#303A3A" points="9.197,97.627 10.596,97.627 10.596,100.738 9.197,99.303 			"/>
			<polygon fill="#303A3A" points="5.153,99.8 6.132,99.8 6.132,100.596 5.153,101.734 			"/>
			<polygon fill="#303A3A" points="14.168,95.652 14.693,96.428 15.218,97.204 14.168,97.204 13.118,97.204 13.643,96.428 			"/>
			<rect x="13.118" y="97.204" fill="#303A3A" width="2.099" height="0.426"/>
			<rect x="13.466" y="98.284" fill="#303A3A" width="1.407" height="1.451"/>
			<rect x="12.414" y="99.734" fill="#303A3A" width="3.51" height="0.553"/>
			<polygon fill="#303A3A" points="15.557,101.226 12.779,101.226 12.414,100.288 15.923,100.288 			"/>
			<rect x="12.779" y="101.226" fill="#303A3A" width="2.777" height="4.183"/>
			<polygon fill="#303A3A" points="19.221,105.408 16.934,105.408 16.632,104.002 19.522,104.002 			"/>
			<polygon fill="#303A3A" points="3.489,105.408 1.202,105.408 0.9,104.002 3.791,104.002 			"/>
			<polygon fill="#303A3A" points="14.85,98.284 13.482,98.284 13.114,97.63 15.218,97.63 			"/>
			<rect x="4.34" y="104.643" fill="#303A3A" width="7.673" height="0.765"/>
			<g>
				<polygon fill="#303A3A" points="3.396,102.417 3.396,102.793 2.989,102.793 2.989,102.417 2.549,102.417 2.549,102.793 
					2.142,102.793 2.142,102.417 1.701,102.417 1.701,102.793 1.295,102.793 1.295,102.417 0.9,102.417 0.9,104.002 3.791,104.002 
					3.791,102.417 				"/>
			</g>
			<g>
				<polygon fill="#303A3A" points="19.128,102.417 19.128,102.793 18.721,102.793 18.721,102.417 18.281,102.417 18.281,102.793 
					17.874,102.793 17.874,102.417 17.434,102.417 17.434,102.793 17.027,102.793 17.027,102.417 16.632,102.417 16.632,104.002 
					19.522,104.002 19.522,102.417 				"/>
			</g>
			<g>
				<path fill="#303A3A" d="M14.205,101.202c-0.234,0-0.424,0.19-0.424,0.423v1.369h0.848v-1.369
					C14.629,101.392,14.439,101.202,14.205,101.202z"/>
			</g>
			<polygon fill="#303A3A" points="1.198,105.327 1.198,107.356 0.467,110.937 7.266,110.937 7.269,107.979 8.413,106.901 
				9.561,107.966 9.561,110.937 20,110.961 19.245,107.275 19.234,105.327 			"/>
		</g>
	</g>
	<g>
		<g>
			<polygon fill="#303A3A" points="4.861,104.746 5.302,104.746 5.302,102.352 8.193,98.811 11.098,102.352 11.096,104.746 
				11.526,104.746 11.526,101.731 8.193,97.983 4.861,101.731 			"/>
			<path fill="#303A3A" d="M6.418,104.696"/>
		</g>
		<polygon fill="#303A3A" points="5.209,104.828 6.367,104.828 6.365,103.488 6.776,103.009 7.236,103.488 7.238,104.828 
			7.757,104.828 7.755,103.488 8.194,102.977 8.626,103.488 8.628,104.828 9.146,104.828 9.144,103.488 9.567,102.977 
			10.016,103.488 10.017,104.828 11.176,104.828 11.178,102.368 8.192,98.729 5.22,102.368 		"/>
	</g>
</g>
<g>
	<g>
		<g>
			<g>
				<polygon points="34.91,91.791 35.447,93.996 35.984,96.202 34.91,96.202 33.837,96.202 34.373,93.996 				"/>
				<polygon points="30.657,95.481 30.933,96.632 31.207,97.782 30.657,97.782 30.107,97.782 30.382,96.632 				"/>
				<rect x="30.024" y="97.782" width="1.266" height="0.236"/>
				<rect x="30.302" y="98.017" width="0.711" height="0.855"/>
				<rect x="30.017" y="98.872" width="1.282" height="0.409"/>
				<polygon points="31.147,99.777 30.167,99.777 30.017,99.28 31.298,99.28 				"/>
				<rect x="33.633" y="96.202" width="2.554" height="0.43"/>
				<polygon points="35.61,97.604 34.211,97.604 33.837,96.632 35.984,96.632 				"/>
				<polygon points="34.211,97.604 35.61,97.604 35.61,100.715 34.211,99.28 				"/>
				<polygon points="30.167,99.777 31.147,99.777 31.147,100.574 30.167,101.711 				"/>
				<polygon points="39.182,95.629 39.707,96.405 40.232,97.181 39.182,97.181 38.132,97.181 38.657,96.405 				"/>
				<rect x="38.132" y="97.181" width="2.099" height="0.426"/>
				<rect x="38.48" y="98.261" width="1.407" height="1.451"/>
				<rect x="37.428" y="99.712" width="3.51" height="0.553"/>
				<polygon points="40.571,101.203 37.794,101.203 37.428,100.265 40.937,100.265 				"/>
				<rect x="37.794" y="101.203" width="2.777" height="4.183"/>
				<polygon points="44.235,105.385 41.948,105.385 41.646,103.979 44.537,103.979 				"/>
				<polygon points="28.503,105.385 26.216,105.385 25.914,103.979 28.805,103.979 				"/>
				<polygon points="39.864,98.261 38.496,98.261 38.129,97.607 40.232,97.607 				"/>
				<rect x="29.354" y="104.62" width="7.673" height="0.765"/>
				<g>
					<polygon points="28.41,102.394 28.41,102.77 28.003,102.77 28.003,102.394 27.563,102.394 27.563,102.77 27.156,102.77 
						27.156,102.394 26.716,102.394 26.716,102.77 26.309,102.77 26.309,102.394 25.914,102.394 25.914,103.979 28.805,103.979 
						28.805,102.394 					"/>
				</g>
				<g>
					<polygon points="44.142,102.394 44.142,102.77 43.735,102.77 43.735,102.394 43.295,102.394 43.295,102.77 42.888,102.77 
						42.888,102.394 42.448,102.394 42.448,102.77 42.041,102.77 42.041,102.394 41.646,102.394 41.646,103.979 44.537,103.979 
						44.537,102.394 					"/>
				</g>
				<g>
					<path d="M39.219,101.179c-0.234,0-0.424,0.19-0.424,0.423v1.369h0.848v-1.369C39.643,101.369,39.453,101.179,39.219,101.179z"
						/>
				</g>
				<polygon points="26.213,105.304 26.213,107.333 25.481,110.914 32.28,110.914 32.283,107.956 33.427,106.878 34.575,107.943 
					34.575,110.914 45.014,110.938 44.259,107.252 44.248,105.304 				"/>
			</g>
		</g>
		<g>
			<g>
				<polygon points="29.875,104.723 30.316,104.723 30.316,102.329 33.208,98.788 36.112,102.329 36.111,104.723 36.54,104.723 
					36.54,101.708 33.208,97.96 29.875,101.708 				"/>
				<path d="M31.432,104.673"/>
			</g>
			<polygon points="30.224,104.805 31.381,104.805 31.379,103.465 31.791,102.986 32.251,103.465 32.253,104.805 32.771,104.805 
				32.769,103.465 33.208,102.954 33.64,103.465 33.642,104.805 34.16,104.805 34.159,103.465 34.581,102.954 35.03,103.465 
				35.032,104.805 36.19,104.805 36.192,102.345 33.206,98.706 30.234,102.345 			"/>
		</g>
	</g>
	<g>
		<g>
			<g>
				<polygon points="34.91,91.791 35.447,93.996 35.984,96.202 34.91,96.202 33.837,96.202 34.373,93.996 				"/>
				<polygon points="30.657,95.481 30.933,96.632 31.207,97.782 30.657,97.782 30.107,97.782 30.382,96.632 				"/>
				<rect x="30.024" y="97.782" width="1.266" height="0.236"/>
				<rect x="30.302" y="98.017" width="0.711" height="0.855"/>
				<rect x="30.017" y="98.872" width="1.282" height="0.409"/>
				<polygon points="31.147,99.777 30.167,99.777 30.017,99.28 31.298,99.28 				"/>
				<rect x="33.633" y="96.202" width="2.554" height="0.43"/>
				<polygon points="35.61,97.604 34.211,97.604 33.837,96.632 35.984,96.632 				"/>
				<polygon points="34.211,97.604 35.61,97.604 35.61,100.715 34.211,99.28 				"/>
				<polygon points="30.167,99.777 31.147,99.777 31.147,100.574 30.167,101.711 				"/>
				<polygon points="39.182,95.629 39.707,96.405 40.232,97.181 39.182,97.181 38.132,97.181 38.657,96.405 				"/>
				<rect x="38.132" y="97.181" width="2.099" height="0.426"/>
				<rect x="38.48" y="98.261" width="1.407" height="1.451"/>
				<rect x="37.428" y="99.712" width="3.51" height="0.553"/>
				<polygon points="40.571,101.203 37.794,101.203 37.428,100.265 40.937,100.265 				"/>
				<rect x="37.794" y="101.203" width="2.777" height="4.183"/>
				<polygon points="44.235,105.385 41.948,105.385 41.646,103.979 44.537,103.979 				"/>
				<polygon points="28.503,105.385 26.216,105.385 25.914,103.979 28.805,103.979 				"/>
				<polygon points="39.864,98.261 38.496,98.261 38.129,97.607 40.232,97.607 				"/>
				<rect x="29.354" y="104.62" width="7.673" height="0.765"/>
				<g>
					<polygon points="28.41,102.394 28.41,102.77 28.003,102.77 28.003,102.394 27.563,102.394 27.563,102.77 27.156,102.77 
						27.156,102.394 26.716,102.394 26.716,102.77 26.309,102.77 26.309,102.394 25.914,102.394 25.914,103.979 28.805,103.979 
						28.805,102.394 					"/>
				</g>
				<g>
					<polygon points="44.142,102.394 44.142,102.77 43.735,102.77 43.735,102.394 43.295,102.394 43.295,102.77 42.888,102.77 
						42.888,102.394 42.448,102.394 42.448,102.77 42.041,102.77 42.041,102.394 41.646,102.394 41.646,103.979 44.537,103.979 
						44.537,102.394 					"/>
				</g>
				<g>
					<path d="M39.219,101.179c-0.234,0-0.424,0.19-0.424,0.423v1.369h0.848v-1.369C39.643,101.369,39.453,101.179,39.219,101.179z"
						/>
				</g>
				<polygon points="26.213,105.304 26.213,107.333 25.481,110.914 32.28,110.914 32.283,107.956 33.427,106.878 34.575,107.943 
					34.575,110.914 45.014,110.938 44.259,107.252 44.248,105.304 				"/>
			</g>
		</g>
		<g>
			<g>
				<polygon points="29.875,104.723 30.316,104.723 30.316,102.329 33.208,98.788 36.112,102.329 36.111,104.723 36.54,104.723 
					36.54,101.708 33.208,97.96 29.875,101.708 				"/>
				<path d="M31.432,104.673"/>
			</g>
			<polygon points="30.224,104.805 31.381,104.805 31.379,103.465 31.791,102.986 32.251,103.465 32.253,104.805 32.771,104.805 
				32.769,103.465 33.208,102.954 33.64,103.465 33.642,104.805 34.16,104.805 34.159,103.465 34.581,102.954 35.03,103.465 
				35.032,104.805 36.19,104.805 36.192,102.345 33.206,98.706 30.234,102.345 			"/>
		</g>
	</g>
</g>
</svg>
