<?xml version="1.0" encoding="utf-8"?>
<!-- Generator: Adobe Illustrator 17.0.0, SVG Export Plug-In . SVG Version: 6.00 Build 0)  -->
<!DOCTYPE svg PUBLIC "-//W3C//DTD SVG 1.1//EN" "http://www.w3.org/Graphics/SVG/1.1/DTD/svg11.dtd">
<svg version="1.1" id="Layer_1" xmlns="http://www.w3.org/2000/svg" xmlns:xlink="http://www.w3.org/1999/xlink" x="0px" y="0px"
	 width="36px" height="36px" viewBox="39.861 39.86 36 36" enable-background="new 39.861 39.86 36 36" xml:space="preserve">
<path fill="#FFFFFF" d="M75.56,58.017L75.56,58.017l0.001-1.318c-0.378,0.093-0.702,0.26-0.94,0.475
	c-0.357,0.228-0.58,0.54-0.587,0.886h-0.001c0,0.708-0.906,1.282-2.024,1.282c-0.286,0-0.556-0.038-0.802-0.106
	c-0.648-0.235-1.094-0.697-1.094-1.234c0-0.775-0.916-1.403-2.046-1.403c-0.851,0-1.58,0.357-1.888,0.864
	c-0.15,0.179-0.242,0.379-0.242,0.596h0.006c0,0.708-0.906,1.282-2.024,1.282c-0.539,0-1.025-0.135-1.387-0.352
	c-0.367-0.253-0.594-0.601-0.594-0.987c0-0.775-0.916-1.403-2.046-1.403c-1.106,0-2.004,0.602-2.042,1.354h-0.01
	c0,0.285-0.126,0.551-0.34,0.772c-0.363,0.344-0.981,0.572-1.684,0.572c-1.118,0-2.024-0.574-2.024-1.282
	c0-0.126-0.037-0.245-0.091-0.36c-0.2-0.631-1.017-1.103-1.997-1.103c-1.129,0-2.046,0.628-2.046,1.402h0.007
	c0,0.476-0.349,0.896-0.879,1.15c-0.309,0.121-0.67,0.194-1.06,0.194c-1.118,0-2.024-0.574-2.024-1.282
	c0-0.292-0.16-0.558-0.419-0.773c-0.356-0.412-1.005-0.692-1.754-0.692c-1.13,0-2.046,0.628-2.046,1.402
	c0,0.612-0.573,1.131-1.37,1.322V60.7c0.634-0.105,1.202-0.358,1.654-0.709c0.749-0.47,1.228-1.18,1.228-1.976h0.006
	c0-0.245,0.302-0.444,0.675-0.444c0.139,0,0.269,0.028,0.376,0.076c0.096,0.084,0.156,0.189,0.156,0.306
	c0,1.548,1.525,2.804,3.406,2.804c1.133,0,2.134-0.457,2.753-1.158c0.452-0.436,0.724-0.986,0.724-1.583
	c0-0.245,0.302-0.444,0.674-0.444c0.243,0,0.454,0.085,0.573,0.212c0.028,0.053,0.046,0.109,0.046,0.17
	c0,1.548,1.525,2.804,3.406,2.804c1.837,0,3.331-1.199,3.399-2.698h0.005c0-0.02,0.005-0.038,0.009-0.057h0.005
	c0-0.016,0.005-0.031,0.006-0.047c0.072-0.194,0.337-0.339,0.654-0.339c0.373,0,0.674,0.198,0.674,0.443
	c0,0.44,0.146,0.853,0.402,1.215c0.563,0.908,1.708,1.531,3.031,1.531c1.881,0,3.407-1.255,3.407-2.803
	c0-0.097,0.041-0.186,0.109-0.261c0.121-0.077,0.285-0.124,0.467-0.124c0.372,0,0.674,0.198,0.674,0.443
	c0,0.708,0.379,1.35,0.988,1.814c0.622,0.571,1.525,0.933,2.531,0.933C74.03,60.806,75.55,59.559,75.56,58.017 M75.561,62.428V61.11
	c-0.378,0.092-0.702,0.259-0.94,0.475c-0.358,0.228-0.58,0.54-0.587,0.886h-0.001c0,0.708-0.906,1.282-2.024,1.282
	c-0.286,0-0.556-0.038-0.803-0.106c-0.648-0.235-1.093-0.696-1.093-1.235c0-0.775-0.916-1.402-2.046-1.402
	c-0.851,0-1.58,0.357-1.888,0.864c-0.15,0.179-0.242,0.38-0.242,0.596h0.006c0,0.708-0.906,1.282-2.024,1.282
	c-0.539,0-1.025-0.135-1.387-0.352c-0.367-0.253-0.594-0.602-0.594-0.987c0-0.775-0.916-1.402-2.046-1.402
	c-1.106,0-2.004,0.602-2.042,1.354h-0.01c0,0.286-0.126,0.55-0.34,0.773c-0.363,0.344-0.981,0.571-1.684,0.571
	c-1.118,0-2.024-0.574-2.024-1.281c0-0.126-0.037-0.245-0.09-0.36c-0.2-0.631-1.017-1.104-1.998-1.104
	c-1.129,0-2.046,0.628-2.046,1.403h0.007c0,0.476-0.349,0.896-0.879,1.15c-0.309,0.12-0.67,0.194-1.06,0.194
	c-1.118,0-2.024-0.573-2.024-1.281c0-0.292-0.16-0.558-0.419-0.773c-0.356-0.412-1.005-0.692-1.754-0.692
	c-1.13,0-2.046,0.628-2.046,1.403c0,0.611-0.573,1.131-1.37,1.321v1.426c0.634-0.105,1.202-0.358,1.654-0.709
	c0.749-0.47,1.228-1.18,1.228-1.976h0.006c0-0.245,0.302-0.444,0.675-0.444c0.139,0,0.269,0.028,0.376,0.075
	c0.096,0.084,0.156,0.19,0.156,0.307c0,1.549,1.525,2.803,3.406,2.803c1.133,0,2.134-0.457,2.753-1.158
	c0.452-0.435,0.724-0.986,0.724-1.583c0-0.245,0.302-0.444,0.674-0.444c0.243,0,0.454,0.085,0.573,0.212
	c0.028,0.053,0.045,0.11,0.045,0.17c0,1.549,1.525,2.803,3.406,2.803c1.837,0,3.331-1.198,3.399-2.697h0.005
	c0-0.02,0.005-0.039,0.009-0.058h0.005c0-0.016,0.005-0.031,0.006-0.047c0.072-0.194,0.337-0.339,0.654-0.339
	c0.373,0,0.674,0.198,0.674,0.444c0,0.439,0.146,0.853,0.402,1.214c0.563,0.908,1.708,1.532,3.032,1.532
	c1.881,0,3.407-1.255,3.407-2.804c0-0.096,0.041-0.185,0.109-0.261c0.121-0.076,0.285-0.124,0.467-0.124
	c0.373,0,0.674,0.198,0.674,0.444c0,0.708,0.378,1.349,0.988,1.814c0.623,0.57,1.525,0.932,2.531,0.932
	c1.874,0,3.395-1.247,3.405-2.788L75.561,62.428L75.561,62.428z M75.609,52.911v-1.318c-0.378,0.092-0.702,0.259-0.94,0.475
	c-0.358,0.228-0.58,0.54-0.587,0.886h-0.001c0,0.708-0.906,1.282-2.024,1.282c-0.286,0-0.556-0.038-0.803-0.106
	c-0.648-0.235-1.093-0.696-1.093-1.235c0-0.775-0.916-1.402-2.046-1.402c-0.851,0-1.58,0.357-1.888,0.864
	c-0.15,0.179-0.242,0.38-0.242,0.596h0.006c0,0.708-0.906,1.282-2.024,1.282c-0.539,0-1.025-0.135-1.387-0.352
	c-0.367-0.253-0.594-0.602-0.594-0.987c0-0.775-0.916-1.402-2.046-1.402c-1.106,0-2.004,0.602-2.042,1.354h-0.01
	c0,0.286-0.126,0.55-0.34,0.773c-0.363,0.344-0.981,0.571-1.684,0.571c-1.118,0-2.024-0.574-2.024-1.281
	c0-0.126-0.037-0.245-0.09-0.36c-0.2-0.631-1.017-1.104-1.998-1.104c-1.129,0-2.046,0.628-2.046,1.403h0.007
	c0,0.476-0.349,0.896-0.879,1.15c-0.309,0.12-0.67,0.194-1.06,0.194c-1.118,0-2.024-0.573-2.024-1.281
	c0-0.292-0.16-0.558-0.419-0.773c-0.356-0.412-1.005-0.692-1.754-0.692c-1.13,0-2.046,0.628-2.046,1.403
	c0,0.611-0.573,1.131-1.37,1.321v1.426c0.634-0.105,1.202-0.358,1.654-0.709c0.749-0.47,1.228-1.18,1.228-1.976h0.006
	c0-0.245,0.302-0.444,0.675-0.444c0.139,0,0.269,0.028,0.376,0.075c0.096,0.084,0.156,0.19,0.156,0.307
	c0,1.549,1.525,2.803,3.406,2.803c1.133,0,2.134-0.457,2.753-1.158c0.452-0.435,0.724-0.986,0.724-1.583
	c0-0.245,0.302-0.444,0.674-0.444c0.243,0,0.454,0.085,0.573,0.212c0.028,0.053,0.045,0.11,0.045,0.17
	c0,1.549,1.525,2.803,3.406,2.803c1.837,0,3.331-1.198,3.399-2.697h0.005c0-0.02,0.005-0.039,0.009-0.058h0.005
	c0-0.016,0.005-0.031,0.006-0.047c0.072-0.194,0.337-0.339,0.654-0.339c0.373,0,0.674,0.198,0.674,0.444
	c0,0.439,0.146,0.853,0.402,1.214c0.563,0.908,1.708,1.532,3.032,1.532c1.881,0,3.407-1.255,3.407-2.804
	c0-0.096,0.041-0.185,0.109-0.261c0.121-0.076,0.285-0.124,0.467-0.124c0.373,0,0.674,0.198,0.674,0.444
	c0,0.708,0.378,1.349,0.989,1.814c0.623,0.57,1.525,0.932,2.531,0.932c1.874,0,3.395-1.247,3.405-2.788L75.609,52.911L75.609,52.911
	z"/>
</svg>
